<svg width="180" height="74" viewBox="0 0 180 74" fill="none" xmlns="http://www.w3.org/2000/svg">
<path d="M76 0.5L89.5749 17L102.5 3.5L112 16.7271L124.5 7L130 18.7366L150.379 11.5L148.5 21.5L165 18.7366L160 30.0952L180 34.3448L158.02 39.5786L171.5 51.5L147 52.7515L141 64L128 54.6042L124.5 69L109.5 56.5L102.5 70L89.5749 55.6042L76 73L70.585 54.6042L49.4453 69V52.7515L26 61.5L28.7704 49.7515L9 51.5L21.1294 39.5786L0 34.3448L22.1294 29.0952L10 19.7366L31.5 22.5L29.7704 10.5L49 17.7271L54.5 5.5L70.585 17L76 0.5Z" fill="#F2C288"/>
<path d="M43.7754 34.1377C43.4792 34.0238 43.1624 33.9668 42.8252 33.9668C42.1325 33.9668 41.5286 34.2197 41.0137 34.7256C40.5033 35.2269 40.248 35.8285 40.248 36.5303C40.248 36.9997 40.3392 37.3665 40.5215 37.6309C40.7038 37.8952 40.9521 38.0273 41.2666 38.0273C41.5811 38.0273 41.9274 37.9476 42.3057 37.7881C42.6885 37.624 43.249 37.2708 43.9873 36.7285V41.1787C43.0166 41.5706 41.9844 41.7666 40.8906 41.7666C39.8014 41.7666 38.7965 41.557 37.876 41.1377C36.4131 40.4678 35.4492 39.4196 34.9844 37.9932C34.8294 37.5055 34.7497 36.9678 34.7451 36.3799C34.7451 35.792 34.818 35.2292 34.9639 34.6914C35.1097 34.1536 35.3216 33.6569 35.5996 33.2012C36.1556 32.2852 36.9349 31.5674 37.9375 31.0479C38.9447 30.5283 40.0977 30.2708 41.3965 30.2754C42.3854 30.2754 43.1784 30.387 43.7754 30.6104V34.1377Z" fill="#333333"/>
<path d="M51.4727 35.4229C51.3815 35.3773 51.263 35.3545 51.1172 35.3545C50.9759 35.3545 50.8187 35.3978 50.6455 35.4844C50.4723 35.5664 50.3014 35.6803 50.1328 35.8262C49.7773 36.1361 49.4788 36.512 49.2373 36.9541C48.9958 37.3962 48.875 37.804 48.875 38.1777C48.875 38.5469 49.0163 38.7952 49.2988 38.9229C49.3991 38.9684 49.5221 38.9912 49.668 38.9912C49.8138 38.9912 49.9665 38.9479 50.126 38.8613C50.2855 38.7702 50.445 38.6494 50.6045 38.499C50.9372 38.1846 51.2288 37.804 51.4795 37.3574C51.7301 36.9062 51.8555 36.5029 51.8555 36.1475C51.8555 35.792 51.7279 35.5505 51.4727 35.4229ZM50.1465 41.7529C48.8431 41.7529 47.7197 41.3405 46.7764 40.5156C45.7692 39.6406 45.2656 38.54 45.2656 37.2139C45.2656 35.8831 45.7373 34.7962 46.6807 33.9531C47.624 33.1055 48.7884 32.6816 50.1738 32.6816C51.5592 32.6816 52.7236 33.0964 53.667 33.9258C54.6104 34.7507 55.0843 35.8558 55.0889 37.2412C55.0934 38.1299 54.8678 38.916 54.4121 39.5996C53.9564 40.2832 53.348 40.8118 52.5869 41.1855C51.8258 41.5592 51.0124 41.7484 50.1465 41.7529Z" fill="#333333"/>
<path d="M65.5 34.165C66.2747 33.1761 67.2591 32.6816 68.4531 32.6816C68.7812 32.6816 69.1185 32.75 69.4648 32.8867C69.8158 33.0234 70.1211 33.2217 70.3809 33.4814C70.946 34.0465 71.2285 34.7871 71.2285 35.7031V41.5H67.2637V37.1182C67.2637 36.5576 67.1748 36.1178 66.9971 35.7988C66.8193 35.4753 66.6074 35.3135 66.3613 35.3135C66.1198 35.3089 65.9603 35.4661 65.8828 35.7852C65.86 35.8763 65.8486 35.9788 65.8486 36.0928V41.5H61.9727V37.1182C61.9727 36.5576 61.8747 36.1178 61.6787 35.7988C61.4873 35.4753 61.2777 35.3135 61.0498 35.3135C60.6852 35.3135 60.5029 35.6074 60.5029 36.1953V41.5H56.4424V33.0029H58.6846L59.6621 34.3291C59.9948 33.8278 60.4688 33.429 61.084 33.1328C61.7038 32.832 62.335 32.6816 62.9775 32.6816C63.8115 32.6816 64.502 32.9642 65.0488 33.5293C65.2266 33.7116 65.377 33.9235 65.5 34.165Z" fill="#333333"/>
<path d="M74.9268 29.0654C75.5967 29.0654 76.0934 29.2067 76.417 29.4893C76.7406 29.7673 76.9001 30.1227 76.8955 30.5557C76.8955 30.9886 76.6882 31.3874 76.2734 31.752C75.8633 32.1165 75.3141 32.2988 74.626 32.2988C73.6598 32.2988 73.0583 32.0072 72.8213 31.4238C72.7529 31.2598 72.7188 31.0775 72.7188 30.877C72.7188 30.6764 72.7666 30.4668 72.8623 30.248C72.958 30.0293 73.1016 29.8333 73.293 29.6602C73.7168 29.2637 74.2614 29.0654 74.9268 29.0654ZM76.7793 41.5H72.8213V33.0029H76.7793V41.5Z" fill="#333333"/>
<path d="M83.0479 35.3135C82.6833 35.3135 82.501 35.6074 82.501 36.1953V41.5H78.4404V33.0029H80.6826L81.6602 34.3291C82.0247 33.8232 82.5283 33.4222 83.1709 33.126C83.818 32.8298 84.4219 32.6816 84.9824 32.6816C86.0124 32.6816 86.8281 32.9551 87.4297 33.502C88.0358 34.0488 88.3389 34.7826 88.3389 35.7031V41.5H84.251V37.3984C84.251 36.0085 83.8499 35.3135 83.0479 35.3135Z" fill="#333333"/>
<path d="M93.0283 45V42.5801C93.2607 42.6074 93.5137 42.6462 93.7871 42.6963C94.0651 42.7464 94.334 42.7715 94.5938 42.7715C94.8535 42.7715 95.0928 42.7419 95.3115 42.6826C95.5348 42.6234 95.7331 42.5072 95.9062 42.334C96.2799 41.9603 96.4691 41.3314 96.4736 40.4473C95.6761 41.3177 94.71 41.7529 93.5752 41.7529C92.445 41.7575 91.5016 41.3997 90.7451 40.6797C89.9932 39.9596 89.6172 38.932 89.6172 37.5967C89.6172 36.6396 89.8268 35.7897 90.2461 35.0469C90.6654 34.2995 91.2282 33.7184 91.9346 33.3037C92.6455 32.889 93.3997 32.6816 94.1973 32.6816C94.9993 32.6816 95.6921 32.9437 96.2754 33.4678C96.4668 33.6364 96.6309 33.8301 96.7676 34.0488L97.752 33.0029H99.9873V41.5C99.9919 43.2546 99.2012 44.4076 97.6152 44.959C96.9772 45.1823 96.2458 45.2939 95.4209 45.2939C94.6006 45.2939 93.8031 45.196 93.0283 45ZM96.3096 35.5801C96.1455 35.4844 95.9723 35.4365 95.79 35.4365C95.6123 35.4365 95.4391 35.473 95.2705 35.5459C94.9242 35.6963 94.6143 35.9401 94.3408 36.2773C93.8805 36.8105 93.6504 37.3757 93.6504 37.9727C93.6504 38.3737 93.7689 38.6562 94.0059 38.8203C94.2064 38.9525 94.5163 38.9502 94.9355 38.8135C95.3366 38.6813 95.7946 38.4147 96.3096 38.0137V35.5801Z" fill="#333333"/>
<path d="M111.355 35.5527C110.344 35.3158 109.608 35.1973 109.147 35.1973C109.015 35.1973 108.913 35.2269 108.84 35.2861C108.771 35.3454 108.737 35.4115 108.737 35.4844C108.737 35.6348 108.924 35.7874 109.298 35.9424C109.676 36.0928 110.022 36.2409 110.337 36.3867C110.651 36.5326 110.923 36.7103 111.15 36.9199C111.643 37.3757 111.889 38.0547 111.889 38.957C111.889 39.8548 111.563 40.5452 110.911 41.0283C110.259 41.5114 109.378 41.7529 108.266 41.7529C107.154 41.7529 106.265 41.6504 105.6 41.4453C105.308 41.3587 105.085 41.2562 104.93 41.1377V38.6016C104.993 38.6061 105.105 38.6357 105.265 38.6904C105.424 38.7451 105.688 38.8317 106.058 38.9502C106.427 39.0641 106.762 39.1211 107.062 39.1211C107.368 39.1211 107.521 39.0094 107.521 38.7861C107.521 38.613 107.384 38.4443 107.11 38.2803C106.987 38.2074 106.848 38.1322 106.693 38.0547C106.051 37.7402 105.59 37.3779 105.312 36.9678C105.039 36.5531 104.902 36.0677 104.902 35.5117C104.902 34.5228 105.303 33.7845 106.105 33.2969C106.78 32.8867 107.662 32.6816 108.751 32.6816C109.512 32.6816 110.275 32.7568 111.041 32.9072C111.205 32.9391 111.31 32.9619 111.355 32.9756V35.5527Z" fill="#333333"/>
<path d="M119.176 35.4229C119.085 35.3773 118.966 35.3545 118.82 35.3545C118.679 35.3545 118.522 35.3978 118.349 35.4844C118.175 35.5664 118.005 35.6803 117.836 35.8262C117.48 36.1361 117.182 36.512 116.94 36.9541C116.699 37.3962 116.578 37.804 116.578 38.1777C116.578 38.5469 116.719 38.7952 117.002 38.9229C117.102 38.9684 117.225 38.9912 117.371 38.9912C117.517 38.9912 117.67 38.9479 117.829 38.8613C117.989 38.7702 118.148 38.6494 118.308 38.499C118.64 38.1846 118.932 37.804 119.183 37.3574C119.433 36.9062 119.559 36.5029 119.559 36.1475C119.559 35.792 119.431 35.5505 119.176 35.4229ZM117.85 41.7529C116.546 41.7529 115.423 41.3405 114.479 40.5156C113.472 39.6406 112.969 38.54 112.969 37.2139C112.969 35.8831 113.44 34.7962 114.384 33.9531C115.327 33.1055 116.492 32.6816 117.877 32.6816C119.262 32.6816 120.427 33.0964 121.37 33.9258C122.313 34.7507 122.787 35.8558 122.792 37.2412C122.797 38.1299 122.571 38.916 122.115 39.5996C121.66 40.2832 121.051 40.8118 120.29 41.1855C119.529 41.5592 118.715 41.7484 117.85 41.7529Z" fill="#333333"/>
<path d="M130.031 35.4229C129.94 35.3773 129.822 35.3545 129.676 35.3545C129.535 35.3545 129.377 35.3978 129.204 35.4844C129.031 35.5664 128.86 35.6803 128.691 35.8262C128.336 36.1361 128.037 36.512 127.796 36.9541C127.554 37.3962 127.434 37.804 127.434 38.1777C127.434 38.5469 127.575 38.7952 127.857 38.9229C127.958 38.9684 128.081 38.9912 128.227 38.9912C128.372 38.9912 128.525 38.9479 128.685 38.8613C128.844 38.7702 129.004 38.6494 129.163 38.499C129.496 38.1846 129.787 37.804 130.038 37.3574C130.289 36.9062 130.414 36.5029 130.414 36.1475C130.414 35.792 130.286 35.5505 130.031 35.4229ZM128.705 41.7529C127.402 41.7529 126.278 41.3405 125.335 40.5156C124.328 39.6406 123.824 38.54 123.824 37.2139C123.824 35.8831 124.296 34.7962 125.239 33.9531C126.183 33.1055 127.347 32.6816 128.732 32.6816C130.118 32.6816 131.282 33.0964 132.226 33.9258C133.169 34.7507 133.643 35.8558 133.647 37.2412C133.652 38.1299 133.426 38.916 132.971 39.5996C132.515 40.2832 131.907 40.8118 131.146 41.1855C130.384 41.5592 129.571 41.7484 128.705 41.7529Z" fill="#333333"/>
<path d="M139.608 35.3135C139.244 35.3135 139.062 35.6074 139.062 36.1953V41.5H135.001V33.0029H137.243L138.221 34.3291C138.585 33.8232 139.089 33.4222 139.731 33.126C140.379 32.8298 140.982 32.6816 141.543 32.6816C142.573 32.6816 143.389 32.9551 143.99 33.502C144.596 34.0488 144.899 34.7826 144.899 35.7031V41.5H140.812V37.3984C140.812 36.0085 140.41 35.3135 139.608 35.3135Z" fill="#333333"/>
</svg>
