<svg width="273" height="192" viewBox="0 0 273 192" fill="none" xmlns="http://www.w3.org/2000/svg">
<path d="M216 0L236 24H196L216 0Z" fill="#333333" fill-opacity="0.5"/>
<g filter="url(#filter0_d_915_26996)">
<rect y="24" width="265" height="80" rx="16" fill="#333333" fill-opacity="0.5" shape-rendering="crispEdges"/>
<rect x="24" y="40" width="48" height="48" rx="24" fill="#F2C288"/>
<path fill-rule="evenodd" clip-rule="evenodd" d="M43.8926 50.8L53.4787 52.356L63 72.0324L34.2 76.8572L43.8926 50.8ZM45.0148 64.4447C46.3015 64.4447 47.3446 63.4009 47.3446 62.1132C47.3446 60.8256 46.3015 59.7818 45.0148 59.7818C43.728 59.7818 42.6849 60.8256 42.6849 62.1132C42.6849 63.4009 43.728 64.4447 45.0148 64.4447ZM52.1849 64.4447C53.4716 64.4447 54.5148 63.4009 54.5148 62.1132C54.5148 60.8256 53.4716 59.7818 52.1849 59.7818C50.8981 59.7818 49.855 60.8256 49.855 62.1132C49.855 63.4009 50.8981 64.4447 52.1849 64.4447Z" fill="#F27D5A"/>
<path d="M93.536 71.5V54.58H105.32V58.036H97.88V61.156H104.84V64.612H97.88V71.5H93.536ZM107.123 71.5V54.58H111.395V71.5H107.123ZM119.273 59.404C121.129 59.404 122.497 59.836 123.377 60.7C124.273 61.548 124.721 62.876 124.721 64.684V71.5H120.713V69.844C120.489 70.42 120.113 70.876 119.585 71.212C119.057 71.532 118.425 71.692 117.689 71.692C116.873 71.692 116.137 71.532 115.481 71.212C114.825 70.876 114.305 70.42 113.921 69.844C113.553 69.252 113.369 68.588 113.369 67.852C113.369 67.004 113.585 66.332 114.017 65.836C114.465 65.324 115.169 64.956 116.129 64.732C117.089 64.508 118.385 64.396 120.017 64.396H120.665V64.108C120.665 63.516 120.529 63.108 120.257 62.884C119.985 62.644 119.505 62.524 118.817 62.524C118.273 62.524 117.641 62.636 116.921 62.86C116.217 63.068 115.553 63.34 114.929 63.676L113.849 60.868C114.537 60.452 115.393 60.108 116.417 59.836C117.457 59.548 118.409 59.404 119.273 59.404ZM118.697 68.836C119.273 68.836 119.745 68.636 120.113 68.236C120.481 67.82 120.665 67.292 120.665 66.652V66.364H120.281C119.257 66.364 118.529 66.46 118.097 66.652C117.665 66.828 117.449 67.132 117.449 67.564C117.449 67.932 117.561 68.236 117.785 68.476C118.025 68.716 118.329 68.836 118.697 68.836ZM127.115 71.5V59.692H131.387V71.5H127.115ZM127.019 53.788H131.483V57.652H127.019V53.788ZM145.505 62.716C146.497 63.02 147.257 63.532 147.785 64.252C148.313 64.956 148.577 65.828 148.577 66.868C148.577 67.796 148.329 68.612 147.833 69.316C147.353 70.004 146.657 70.54 145.745 70.924C144.849 71.308 143.793 71.5 142.577 71.5H134.153V54.58H142.337C144.113 54.58 145.521 54.98 146.561 55.78C147.617 56.564 148.145 57.628 148.145 58.972C148.145 59.836 147.913 60.604 147.449 61.276C146.985 61.932 146.337 62.412 145.505 62.716ZM138.449 61.228H141.593C142.425 61.228 143.033 61.1 143.417 60.844C143.801 60.588 143.993 60.18 143.993 59.62C143.993 59.028 143.801 58.596 143.417 58.324C143.033 58.052 142.425 57.916 141.593 57.916H138.449V61.228ZM142.025 68.164C142.905 68.164 143.529 68.028 143.897 67.756C144.281 67.468 144.473 67.004 144.473 66.364C144.473 65.724 144.281 65.268 143.897 64.996C143.529 64.708 142.905 64.564 142.025 64.564H138.449V68.164H142.025ZM156.505 71.692C155.209 71.692 154.065 71.444 153.073 70.948C152.097 70.436 151.337 69.716 150.793 68.788C150.265 67.86 150.001 66.772 150.001 65.524C150.001 64.276 150.265 63.196 150.793 62.284C151.337 61.356 152.097 60.644 153.073 60.148C154.049 59.652 155.193 59.404 156.505 59.404C157.817 59.404 158.961 59.652 159.937 60.148C160.913 60.644 161.665 61.356 162.193 62.284C162.737 63.196 163.009 64.276 163.009 65.524C163.009 66.772 162.737 67.86 162.193 68.788C161.665 69.716 160.913 70.436 159.937 70.948C158.961 71.444 157.817 71.692 156.505 71.692ZM156.505 68.5C158.025 68.5 158.785 67.508 158.785 65.524C158.785 63.54 158.025 62.548 156.505 62.548C154.985 62.548 154.225 63.54 154.225 65.524C154.225 67.508 154.985 68.5 156.505 68.5ZM171.859 68.62C172.211 68.62 172.603 68.596 173.035 68.548L172.819 71.596C172.307 71.66 171.811 71.692 171.331 71.692C169.411 71.692 168.011 71.292 167.131 70.492C166.267 69.676 165.835 68.42 165.835 66.724V62.836H163.627V59.692H165.835V56.26H170.107V59.692H172.939V62.836H170.107V66.748C170.107 67.996 170.691 68.62 171.859 68.62ZM175.39 65.644L174.07 54.556L179.302 54.58L177.958 65.644H175.39ZM174.454 67.132H178.894V71.5H174.454V67.132ZM199.596 54.58H203.916V71.5H199.596V64.66H192.684V71.5H188.364V54.58H192.684V61.156H199.596V54.58ZM217.605 66.412H210.309C210.437 67.18 210.717 67.732 211.149 68.068C211.581 68.404 212.197 68.572 212.997 68.572C213.573 68.572 214.157 68.476 214.749 68.284C215.341 68.092 215.869 67.828 216.333 67.492L217.413 70.3C216.821 70.732 216.109 71.076 215.277 71.332C214.445 71.572 213.613 71.692 212.781 71.692C211.421 71.692 210.245 71.444 209.253 70.948C208.261 70.452 207.493 69.74 206.949 68.812C206.421 67.884 206.157 66.796 206.157 65.548C206.157 64.364 206.405 63.308 206.901 62.38C207.413 61.436 208.117 60.708 209.013 60.196C209.925 59.668 210.949 59.404 212.085 59.404C213.781 59.404 215.125 59.948 216.117 61.036C217.109 62.108 217.605 63.58 217.605 65.452V66.412ZM212.205 62.284C211.069 62.284 210.421 62.988 210.261 64.396H214.029C213.933 62.988 213.325 62.284 212.205 62.284ZM219.553 71.5V54.58H223.825V71.5H219.553ZM234.127 59.404C235.135 59.404 236.031 59.668 236.815 60.196C237.615 60.708 238.231 61.436 238.663 62.38C239.111 63.324 239.335 64.404 239.335 65.62C239.335 66.836 239.111 67.908 238.663 68.836C238.231 69.748 237.623 70.452 236.839 70.948C236.055 71.444 235.151 71.692 234.127 71.692C233.375 71.692 232.679 71.54 232.039 71.236C231.415 70.932 230.927 70.524 230.575 70.012V75.82H226.303V59.692H230.503V61.204C230.839 60.644 231.327 60.204 231.967 59.884C232.623 59.564 233.343 59.404 234.127 59.404ZM232.831 68.5C233.567 68.5 234.127 68.252 234.511 67.756C234.911 67.26 235.111 66.548 235.111 65.62C235.111 64.644 234.911 63.9 234.511 63.388C234.111 62.86 233.543 62.596 232.807 62.596C232.071 62.596 231.503 62.852 231.103 63.364C230.703 63.876 230.503 64.612 230.503 65.572C230.503 66.516 230.703 67.244 231.103 67.756C231.503 68.252 232.079 68.5 232.831 68.5Z" fill="#F2F2F2"/>
</g>
<path d="M159.019 116.751C150.735 102.402 155.651 84.0548 170 75.7705C184.349 67.4862 202.697 72.4025 210.981 86.7513L253.981 161.229L202.019 191.229L159.019 116.751Z" fill="#E6AB85"/>
<path d="M159.019 116.751C150.735 102.402 155.651 84.0548 170 75.7705C176.696 71.9045 185.258 74.1988 189.124 80.8949L240.124 169.229L202.019 191.229L159.019 116.751Z" fill="#FFD0B2"/>
<path d="M170.813 119.179C176.612 129.224 189.456 132.665 199.5 126.866C209.544 121.067 212.986 108.224 207.187 98.1794L201.02 87.4985C199.179 84.3098 195.102 83.2173 191.913 85.0583L167.087 99.3916C163.898 101.233 162.806 105.31 164.647 108.498L170.813 119.179Z" fill="#FDE6D7"/>
<rect x="196.679" y="161.981" width="40" height="2" transform="rotate(-30 196.679 161.981)" fill="#D49A75"/>
<rect x="200.912" y="165.311" width="36" height="2" transform="rotate(-30 200.912 165.311)" fill="#D49A75"/>
<rect x="195.912" y="156.651" width="36" height="2" transform="rotate(-30 195.912 156.651)" fill="#D49A75"/>
<defs>
<filter id="filter0_d_915_26996" x="0" y="24" width="273" height="88" filterUnits="userSpaceOnUse" color-interpolation-filters="sRGB">
<feFlood flood-opacity="0" result="BackgroundImageFix"/>
<feColorMatrix in="SourceAlpha" type="matrix" values="0 0 0 0 0 0 0 0 0 0 0 0 0 0 0 0 0 0 127 0" result="hardAlpha"/>
<feOffset dx="8" dy="8"/>
<feComposite in2="hardAlpha" operator="out"/>
<feColorMatrix type="matrix" values="0 0 0 0 0 0 0 0 0 0 0 0 0 0 0 0 0 0 0.1 0"/>
<feBlend mode="normal" in2="BackgroundImageFix" result="effect1_dropShadow_915_26996"/>
<feBlend mode="normal" in="SourceGraphic" in2="effect1_dropShadow_915_26996" result="shape"/>
</filter>
</defs>
</svg>
