<svg width="395" height="335" viewBox="0 0 395 335" fill="none" xmlns="http://www.w3.org/2000/svg">
<path d="M58.0774 32.4341L31.9115 44.5825L39.4891 66.2249L64.2091 62.5313L58.0774 32.4341Z" fill="#F2C288"/>
<path d="M29.9869 45.3605L12.9535 62.173L14.7693 76.403L36.1174 63.4922L29.9869 45.3605Z" fill="#F2C288"/>
<path d="M45.4204 81.1209L33.482 87.3433L31.2144 78.8805L40.8101 70.2623L45.4204 81.1209Z" fill="#F2C288"/>
<path d="M85.5058 40.3259L60.3302 34.8025L64.8895 54.8376L91.1189 52.247L85.5058 40.3259Z" fill="#F2C288"/>
<path d="M79.572 74.9937L66.1219 75.5741L64.6852 63.8652L77.3044 66.5308L79.572 74.9937Z" fill="#F2C288"/>
<path d="M63.066 64.1689L41.4643 67.656L46.857 80.7363L64.5827 75.9867L63.066 64.1689Z" fill="#F2C288"/>
<path d="M43.0941 11.5404L32.0094 12.7067L29.7346 43.3073L58.7368 29.8741L43.0941 11.5404Z" fill="#F2C288"/>
<ellipse cx="36.6133" cy="24.9091" rx="2.9196" ry="2.92046" transform="rotate(-15 36.6133 24.9091)" fill="#333333"/>
<path d="M47.3868 22.0225C47.8043 23.5805 46.8801 25.1818 45.3226 25.5991C43.7651 26.0165 42.164 25.0918 41.7466 23.5338C41.3291 21.9759 42.2533 20.3746 43.8108 19.9572C45.3683 19.5399 46.9694 20.4646 47.3868 22.0225Z" fill="#333333"/>
<path opacity="0.5" d="M58.2334 91.4795C121.047 302.682 404.029 471.485 449.792 166.28" stroke="#E0E0E0" stroke-width="4" stroke-dasharray="16 8"/>
</svg>
