<svg width="487" height="204" viewBox="0 0 487 204" fill="none" xmlns="http://www.w3.org/2000/svg">
<path d="M449.359 68.8715L425.756 52.2854L410.802 69.669L426.36 89.2304L449.359 68.8715Z" fill="#E98263"/>
<path d="M424.119 51.0076L401.043 44.6625L389.627 53.35L411.482 65.3826L424.119 51.0076Z" fill="#E98263"/>
<path d="M400.867 82.2538L389.509 75.026L395.704 68.8308L407.966 72.8319L400.867 82.2538Z" fill="#E98263"/>
<path d="M456.239 96.5713L448.435 72.0069L433.364 85.9728L448.722 107.393L456.239 96.5713Z" fill="#E98263"/>
<path d="M423.249 108.766L416.021 97.4084L425.443 90.3097L429.444 102.571L423.249 108.766Z" fill="#E98263"/>
<path d="M424.371 89.0592L410.55 72.0951L401.918 83.3055L414.895 96.2816L424.371 89.0592Z" fill="#E98263"/>
<path d="M459.962 45.4488L453.41 36.4324L425.772 49.7626L451.906 68.1627L459.962 45.4488Z" fill="#E98263"/>
<ellipse cx="445.144" cy="46.5208" rx="2.9196" ry="2.92046" transform="rotate(45 445.144 46.5208)" fill="#333333"/>
<path d="M453.031 54.4076C451.89 55.5481 450.041 55.5484 448.901 54.4082C447.761 53.268 447.761 51.4192 448.902 50.2786C450.042 49.1381 451.891 49.1379 453.031 50.278C454.171 51.4182 454.171 53.2671 453.031 54.4076Z" fill="#333333"/>
<path opacity="0.5" d="M401.99 99C241.99 250.5 -87.4802 255.197 25.4893 -32" stroke="#333333" stroke-opacity="0.5" stroke-width="4" stroke-dasharray="16 8"/>
</svg>
