<svg width="477" height="207" viewBox="0 0 477 207" fill="none" xmlns="http://www.w3.org/2000/svg">
<path d="M441.073 143.122L422.567 120.992L403.623 133.913L413.589 156.835L441.073 143.122Z" fill="#E98263"/>
<path d="M421.317 119.335L400.669 107.233L387.394 112.67L405.39 129.949L421.317 119.335Z" fill="#E98263"/>
<path d="M390.769 143.498L381.669 133.577L389.257 129.196L400.065 136.234L390.769 143.498Z" fill="#E98263"/>
<path d="M440.55 171.659L439.369 145.911L421.197 155.501L430.488 180.166L440.55 171.659Z" fill="#E98263"/>
<path d="M405.527 174.9L401.486 162.058L412.424 157.64L413.115 170.519L405.527 174.9Z" fill="#E98263"/>
<path d="M411.711 156.154L402.752 136.191L391.513 144.786L400.688 160.678L411.711 156.154Z" fill="#E98263"/>
<path d="M457.377 123.242L453.382 112.837L423.235 118.559L443.717 143.097L457.377 123.242Z" fill="#E98263"/>
<ellipse cx="442.787" cy="120.442" rx="2.9196" ry="2.92046" transform="rotate(60 442.787 120.442)" fill="#333333"/>
<path d="M448.363 130.101C446.966 130.908 445.18 130.43 444.374 129.033C443.568 127.637 444.047 125.851 445.443 125.045C446.84 124.238 448.626 124.716 449.432 126.113C450.239 127.509 449.76 129.295 448.363 130.101Z" fill="#333333"/>
<path opacity="0.5" d="M387.52 159.964C193.761 264.891 -125.698 184.154 57.7538 -64.0178" stroke="#333333" stroke-opacity="0.5" stroke-width="4" stroke-dasharray="16 8"/>
</svg>
