<svg width="48" height="48" viewBox="0 0 48 48" fill="none" xmlns="http://www.w3.org/2000/svg">
<path fill-rule="evenodd" clip-rule="evenodd" d="M39.3349 23.474C37.2386 30.3678 30.4154 35.5189 22.1729 35.9681C24.178 38.415 27.3853 39.9998 30.9997 39.9998C31.9806 39.9998 32.9316 39.8831 33.8366 39.6641L37.8179 41.9998L38.7912 37.0588C40.774 35.2501 41.9997 32.7551 41.9997 29.9998C41.9997 27.506 40.9956 25.2255 39.3349 23.474Z" fill="#F27D5A"/>
<path fill-rule="evenodd" clip-rule="evenodd" d="M21 32C29.2843 32 36 26.1797 36 19C36 11.8203 29.2843 6 21 6C12.7157 6 6 11.8203 6 19C6 21.9271 7.11627 24.6283 9 26.8013V34L14.5725 30.7494C16.5206 31.5513 18.6998 32 21 32Z" fill="#E98263"/>
<path d="M9 26.8013H10V26.4282L9.7556 26.1462L9 26.8013ZM9 34H8V35.741L9.50387 34.8638L9 34ZM14.5725 30.7494L14.9531 29.8247L14.4958 29.6364L14.0686 29.8856L14.5725 30.7494ZM35 19C35 25.4979 28.8711 31 21 31V33C29.6974 33 37 26.8615 37 19H35ZM21 7C28.8711 7 35 12.5021 35 19H37C37 11.1385 29.6974 5 21 5V7ZM7 19C7 12.5021 13.1289 7 21 7V5C12.3026 5 5 11.1385 5 19H7ZM9.7556 26.1462C8.01385 24.1371 7 21.6637 7 19H5C5 22.1906 6.21868 25.1196 8.2444 27.4563L9.7556 26.1462ZM10 34V26.8013H8V34H10ZM14.0686 29.8856L8.49613 33.1362L9.50387 34.8638L15.0763 31.6132L14.0686 29.8856ZM21 31C18.83 31 16.7801 30.5767 14.9531 29.8247L14.1918 31.6741C16.2611 32.5259 18.5697 33 21 33V31Z" fill="#F27D5A"/>
</svg>
