<svg width="48" height="48" viewBox="0 0 48 48" fill="none" xmlns="http://www.w3.org/2000/svg">
<path d="M30 24C30 27.3137 27.3137 30 24 30C20.6863 30 18 27.3137 18 24C18 20.6863 20.6863 18 24 18C27.3137 18 30 20.6863 30 24Z" fill="#E98263"/>
<path d="M44 24C44 27.3137 41.3137 30 38 30C34.6863 30 32 27.3137 32 24C32 20.6863 34.6863 18 38 18C41.3137 18 44 20.6863 44 24Z" fill="#E98263"/>
<path d="M16 24C16 27.3137 13.3137 30 10 30C6.68629 30 4 27.3137 4 24C4 20.6863 6.68629 18 10 18C13.3137 18 16 20.6863 16 24Z" fill="#E98263"/>
</svg>
