<svg width="210" height="40" viewBox="0 0 210 40" fill="none" xmlns="http://www.w3.org/2000/svg">
<path d="M25.1543 2.58032C25.0605 4.04907 24.9746 5.5022 24.8965 6.9397C24.8184 8.3772 24.7168 9.83032 24.5918 11.2991L12.6543 11.8147V14.7678H23.2793L22.8105 22.773L12.6074 23.0074L12.6543 36.1428L0.794922 36.3772L1.54492 2.58032H25.1543Z" fill="#1D1E30"/>
<path d="M93.1631 3.3772L90.585 35.2991L80.6943 35.8147V4.03345L93.1631 3.3772Z" fill="#1D1E30"/>
<path d="M120.686 3.42407L119.242 13.4612C118.753 13.3362 117.431 13.1038 116.942 13.0569C116.453 13.01 115.964 12.9866 115.475 12.9866C114.227 12.9866 113.038 13.1428 111.909 13.4553C110.779 13.7522 109.776 14.2131 108.899 14.8381C108.039 15.4631 106.825 17.1819 106.825 17.1819C106.825 17.1819 106.066 19.2209 106.066 20.4866C106.066 21.2991 106.201 22.0022 106.471 22.5959C106.758 23.1897 107.154 23.6819 107.66 24.0725C108.166 24.4631 108.764 24.7522 109.455 24.9397C110.147 25.1272 110.905 25.2209 111.732 25.2209C112.355 25.2209 113.005 25.1584 113.679 25.0334C114.353 24.9084 115.019 24.7444 115.677 24.5413C116.335 24.3381 116.975 24.1038 117.599 23.8381C118.223 23.5725 119.589 22.8571 120.111 22.5759L119.169 34.0334C118.511 34.3459 117.795 34.6272 117.019 34.8772C116.26 35.1116 115.476 35.3225 114.667 35.51C113.858 35.6819 113.048 35.8147 112.239 35.9084C111.43 36.0022 110.654 36.0491 109.912 36.0491C107.771 36.0491 105.773 35.6819 103.918 34.9475C102.064 34.2131 100.453 33.2053 99.0877 31.9241C97.722 30.6428 96.6429 29.135 95.8504 27.4006C95.0748 25.6506 94.687 23.7678 94.687 21.7522C94.687 19.0803 95.1001 16.5647 95.9263 14.2053C96.7525 11.8303 97.9664 9.7522 99.5682 7.97095C101.17 6.1897 103.151 4.78345 105.512 3.7522C107.889 2.72095 110.62 2.20532 113.706 2.20532C114.869 2.20532 116.058 2.29126 117.272 2.46313C118.503 2.63501 119.641 2.95532 120.686 3.42407Z" fill="#1D1E30"/>
<path d="M152.305 36.3772L140.586 36.9397L140.492 26.1116H133.3L132.971 36.3772H122.471L123.362 3.42407L134.518 3.9397L133.815 17.9085H140.82L140.867 2.67407L151.555 2.95532L152.305 36.3772Z" fill="#1D1E30"/>
<path d="M185.329 34.3616L173.704 35.8616L172.298 30.5647H166.954L165.782 35.8616L153.829 34.6897L163.157 3.47095L176.188 2.8147L185.329 34.3616ZM171.454 23.3928L169.673 15.2366L167.938 23.3928H171.454Z" fill="#1D1E30"/>
<path d="M209.562 3.33032L209.327 13.2678L201.299 13.5491L200.455 35.2991L190.565 35.8147L189.674 14.0647L181.613 14.4397L181.894 3.3772L209.562 3.33032Z" fill="#1D1E30"/>
<path d="M71.7379 2.39634L57.7581 0.127197L43.623 38.1272L85.623 31.091L71.7379 2.39634Z" fill="#F27D5A"/>
<ellipse cx="59.395" cy="16.6256" rx="3.39772" ry="3.4" fill="white"/>
<path d="M73.2488 16.6256C73.2488 18.5034 71.7276 20.0256 69.8511 20.0256C67.9746 20.0256 66.4534 18.5034 66.4534 16.6256C66.4534 14.7478 67.9746 13.2256 69.8511 13.2256C71.7276 13.2256 73.2488 14.7478 73.2488 16.6256Z" fill="white"/>
<path d="M49.5605 23.0178L48.5762 33.4241L26.8418 34.9709C26.9355 29.5178 27.0371 24.0959 27.1465 18.7053C27.2715 13.3147 27.4199 7.89282 27.5918 2.4397H39.7793C39.4199 5.86157 39.0762 9.28345 38.748 12.7053C38.4199 16.1116 38.1855 19.5491 38.0449 23.0178C38.7793 23.0491 39.5059 23.0647 40.2246 23.0647C40.9434 23.0647 43.6699 23.0647 44.4043 23.0647C45.2793 23.0647 46.1387 23.0569 46.9824 23.0413C47.8262 23.0256 48.6855 23.0178 49.5605 23.0178Z" fill="#1D1E30"/>
</svg>
