<svg width="264" height="264" viewBox="0 0 264 264" fill="none" xmlns="http://www.w3.org/2000/svg">
<rect x="36" y="36" width="8" height="8" fill="#333333"/>
<rect x="44" y="36" width="8" height="8" fill="#333333"/>
<rect x="52" y="36" width="8" height="8" fill="#333333"/>
<rect x="60" y="36" width="8" height="8" fill="#333333"/>
<rect x="68" y="36" width="8" height="8" fill="#333333"/>
<rect x="76" y="36" width="8" height="8" fill="#333333"/>
<rect x="84" y="36" width="8" height="8" fill="#9DC0CA"/>
<rect x="92" y="36" width="8" height="8" fill="#333333"/>
<rect x="100" y="36" width="8" height="8" fill="#9DC0CA"/>
<rect x="108" y="36" width="8" height="8" fill="#333333"/>
<rect x="116" y="36" width="8" height="8" fill="#333333"/>
<rect x="124" y="36" width="8" height="8" fill="#9DC0CA"/>
<rect x="132" y="36" width="8" height="8" fill="#333333"/>
<rect x="140" y="36" width="8" height="8" fill="#9DC0CA"/>
<rect x="148" y="36" width="8" height="8" fill="#9DC0CA"/>
<rect x="156" y="36" width="8" height="8" fill="#9DC0CA"/>
<rect x="164" y="36" width="8" height="8" fill="#9DC0CA"/>
<rect x="172" y="36" width="8" height="8" fill="#9DC0CA"/>
<rect x="180" y="36" width="8" height="8" fill="#333333"/>
<rect x="188" y="36" width="8" height="8" fill="#333333"/>
<rect x="196" y="36" width="8" height="8" fill="#333333"/>
<rect x="204" y="36" width="8" height="8" fill="#333333"/>
<rect x="212" y="36" width="8" height="8" fill="#333333"/>
<rect x="220" y="36" width="8" height="8" fill="#333333"/>
<rect x="36" y="44" width="8" height="8" fill="#333333"/>
<rect x="44" y="44" width="8" height="8" fill="#9DC0CA"/>
<rect x="52" y="44" width="8" height="8" fill="#9DC0CA"/>
<rect x="60" y="44" width="8" height="8" fill="#9DC0CA"/>
<rect x="68" y="44" width="8" height="8" fill="#9DC0CA"/>
<rect x="76" y="44" width="8" height="8" fill="#333333"/>
<rect x="84" y="44" width="8" height="8" fill="#9DC0CA"/>
<rect x="92" y="44" width="8" height="8" fill="#333333"/>
<rect x="100" y="44" width="8" height="8" fill="#333333"/>
<rect x="108" y="44" width="8" height="8" fill="#9DC0CA"/>
<rect x="116" y="44" width="8" height="8" fill="#333333"/>
<rect x="124" y="44" width="8" height="8" fill="#333333"/>
<rect x="132" y="44" width="8" height="8" fill="#333333"/>
<rect x="140" y="44" width="8" height="8" fill="#333333"/>
<rect x="148" y="44" width="8" height="8" fill="#9DC0CA"/>
<rect x="156" y="44" width="8" height="8" fill="#333333"/>
<rect x="164" y="44" width="8" height="8" fill="#333333"/>
<rect x="172" y="44" width="8" height="8" fill="#9DC0CA"/>
<rect x="180" y="44" width="8" height="8" fill="#333333"/>
<rect x="188" y="44" width="8" height="8" fill="#9DC0CA"/>
<rect x="196" y="44" width="8" height="8" fill="#9DC0CA"/>
<rect x="204" y="44" width="8" height="8" fill="#9DC0CA"/>
<rect x="212" y="44" width="8" height="8" fill="#9DC0CA"/>
<rect x="220" y="44" width="8" height="8" fill="#333333"/>
<rect x="36" y="52" width="8" height="8" fill="#333333"/>
<rect x="44" y="52" width="8" height="8" fill="#9DC0CA"/>
<rect x="52" y="52" width="8" height="8" fill="#333333"/>
<rect x="60" y="52" width="8" height="8" fill="#333333"/>
<rect x="68" y="52" width="8" height="8" fill="#9DC0CA"/>
<rect x="76" y="52" width="8" height="8" fill="#333333"/>
<rect x="84" y="52" width="8" height="8" fill="#9DC0CA"/>
<rect x="92" y="52" width="8" height="8" fill="#333333"/>
<rect x="100" y="52" width="8" height="8" fill="#E98263"/>
<rect x="108" y="52" width="8" height="8" fill="#E98263"/>
<rect x="116" y="52" width="8" height="8" fill="#E98263"/>
<rect x="124" y="52" width="8" height="8" fill="#333333"/>
<rect x="132" y="52" width="8" height="8" fill="#9DC0CA"/>
<rect x="140" y="52" width="8" height="8" fill="#9DC0CA"/>
<rect x="148" y="52" width="8" height="8" fill="#333333"/>
<rect x="156" y="52" width="8" height="8" fill="#9DC0CA"/>
<rect x="164" y="52" width="8" height="8" fill="#333333"/>
<rect x="172" y="52" width="8" height="8" fill="#9DC0CA"/>
<rect x="180" y="52" width="8" height="8" fill="#333333"/>
<rect x="188" y="52" width="8" height="8" fill="#9DC0CA"/>
<rect x="196" y="52" width="8" height="8" fill="#333333"/>
<rect x="204" y="52" width="8" height="8" fill="#333333"/>
<rect x="212" y="52" width="8" height="8" fill="#9DC0CA"/>
<rect x="220" y="52" width="8" height="8" fill="#333333"/>
<rect x="36" y="60" width="8" height="8" fill="#333333"/>
<rect x="44" y="60" width="8" height="8" fill="#9DC0CA"/>
<rect x="52" y="60" width="8" height="8" fill="#333333"/>
<rect x="60" y="60" width="8" height="8" fill="#333333"/>
<rect x="68" y="60" width="8" height="8" fill="#9DC0CA"/>
<rect x="76" y="60" width="8" height="8" fill="#333333"/>
<rect x="84" y="60" width="8" height="8" fill="#9DC0CA"/>
<rect x="92" y="60" width="8" height="8" fill="#9DC0CA"/>
<rect x="100" y="60" width="8" height="8" fill="#E98263"/>
<rect x="108" y="60" width="8" height="8" fill="#E98263"/>
<rect x="116" y="60" width="8" height="8" fill="#E98263"/>
<rect x="124" y="60" width="8" height="8" fill="#E98263"/>
<rect x="132" y="60" width="8" height="8" fill="#E98263"/>
<rect x="140" y="60" width="8" height="8" fill="#E98263"/>
<rect x="148" y="60" width="8" height="8" fill="#E98263"/>
<rect x="156" y="60" width="8" height="8" fill="#E98263"/>
<rect x="164" y="60" width="8" height="8" fill="#333333"/>
<rect x="172" y="60" width="8" height="8" fill="#9DC0CA"/>
<rect x="180" y="60" width="8" height="8" fill="#333333"/>
<rect x="188" y="60" width="8" height="8" fill="#9DC0CA"/>
<rect x="196" y="60" width="8" height="8" fill="#333333"/>
<rect x="204" y="60" width="8" height="8" fill="#333333"/>
<rect x="212" y="60" width="8" height="8" fill="#9DC0CA"/>
<rect x="220" y="60" width="8" height="8" fill="#333333"/>
<rect x="36" y="68" width="8" height="8" fill="#333333"/>
<rect x="44" y="68" width="8" height="8" fill="#9DC0CA"/>
<rect x="52" y="68" width="8" height="8" fill="#9DC0CA"/>
<rect x="60" y="68" width="8" height="8" fill="#9DC0CA"/>
<rect x="68" y="68" width="8" height="8" fill="#9DC0CA"/>
<rect x="76" y="68" width="8" height="8" fill="#333333"/>
<rect x="84" y="68" width="8" height="8" fill="#9DC0CA"/>
<rect x="92" y="68" width="8" height="8" fill="#E98263"/>
<rect x="100" y="68" width="8" height="8" fill="#E98263"/>
<rect x="108" y="68" width="8" height="8" fill="#E98263"/>
<rect x="116" y="68" width="8" height="8" fill="#E98263"/>
<rect x="124" y="68" width="8" height="8" fill="#E98263"/>
<rect x="132" y="68" width="8" height="8" fill="#E98263"/>
<rect x="140" y="68" width="8" height="8" fill="#E98263"/>
<rect x="148" y="68" width="8" height="8" fill="#E98263"/>
<rect x="156" y="68" width="8" height="8" fill="#E98263"/>
<rect x="164" y="68" width="8" height="8" fill="#E98263"/>
<rect x="172" y="68" width="8" height="8" fill="#9DC0CA"/>
<rect x="180" y="68" width="8" height="8" fill="#333333"/>
<rect x="188" y="68" width="8" height="8" fill="#9DC0CA"/>
<rect x="196" y="68" width="8" height="8" fill="#9DC0CA"/>
<rect x="204" y="68" width="8" height="8" fill="#9DC0CA"/>
<rect x="212" y="68" width="8" height="8" fill="#9DC0CA"/>
<rect x="220" y="68" width="8" height="8" fill="#333333"/>
<rect x="36" y="76" width="8" height="8" fill="#333333"/>
<rect x="44" y="76" width="8" height="8" fill="#333333"/>
<rect x="52" y="76" width="8" height="8" fill="#333333"/>
<rect x="60" y="76" width="8" height="8" fill="#333333"/>
<rect x="68" y="76" width="8" height="8" fill="#333333"/>
<rect x="76" y="76" width="8" height="8" fill="#333333"/>
<rect x="84" y="76" width="8" height="8" fill="#9DC0CA"/>
<rect x="92" y="76" width="8" height="8" fill="#E98263"/>
<rect x="100" y="76" width="8" height="8" fill="#E98263"/>
<rect x="108" y="76" width="8" height="8" fill="#E98263"/>
<rect x="116" y="76" width="8" height="8" fill="#E98263"/>
<rect x="124" y="76" width="8" height="8" fill="#E98263"/>
<rect x="132" y="76" width="8" height="8" fill="#E98263"/>
<rect x="140" y="76" width="8" height="8" fill="#E98263"/>
<rect x="148" y="76" width="8" height="8" fill="#E98263"/>
<rect x="156" y="76" width="8" height="8" fill="#E98263"/>
<rect x="164" y="76" width="8" height="8" fill="#E98263"/>
<rect x="172" y="76" width="8" height="8" fill="#9DC0CA"/>
<rect x="180" y="76" width="8" height="8" fill="#333333"/>
<rect x="188" y="76" width="8" height="8" fill="#333333"/>
<rect x="196" y="76" width="8" height="8" fill="#333333"/>
<rect x="204" y="76" width="8" height="8" fill="#333333"/>
<rect x="212" y="76" width="8" height="8" fill="#333333"/>
<rect x="220" y="76" width="8" height="8" fill="#333333"/>
<rect x="36" y="84" width="8" height="8" fill="#9DC0CA"/>
<rect x="44" y="84" width="8" height="8" fill="#9DC0CA"/>
<rect x="52" y="84" width="8" height="8" fill="#9DC0CA"/>
<rect x="60" y="84" width="8" height="8" fill="#9DC0CA"/>
<rect x="68" y="84" width="8" height="8" fill="#9DC0CA"/>
<rect x="76" y="84" width="8" height="8" fill="#9DC0CA"/>
<rect x="84" y="84" width="8" height="8" fill="#9DC0CA"/>
<rect x="92" y="84" width="8" height="8" fill="#E98263"/>
<rect x="100" y="84" width="8" height="8" fill="#E98263"/>
<rect x="108" y="84" width="8" height="8" fill="#E98263"/>
<rect x="116" y="84" width="8" height="8" fill="#E98263"/>
<rect x="124" y="84" width="8" height="8" fill="#E98263"/>
<rect x="132" y="84" width="8" height="8" fill="#E98263"/>
<rect x="140" y="84" width="8" height="8" fill="#E98263"/>
<rect x="148" y="84" width="8" height="8" fill="#E98263"/>
<rect x="156" y="84" width="8" height="8" fill="#E98263"/>
<rect x="164" y="84" width="8" height="8" fill="#E98263"/>
<rect x="172" y="84" width="8" height="8" fill="#9DC0CA"/>
<rect x="180" y="84" width="8" height="8" fill="#9DC0CA"/>
<rect x="188" y="84" width="8" height="8" fill="#9DC0CA"/>
<rect x="196" y="84" width="8" height="8" fill="#9DC0CA"/>
<rect x="204" y="84" width="8" height="8" fill="#9DC0CA"/>
<rect x="212" y="84" width="8" height="8" fill="#9DC0CA"/>
<rect x="220" y="84" width="8" height="8" fill="#9DC0CA"/>
<rect x="36" y="92" width="8" height="8" fill="#9DC0CA"/>
<rect x="44" y="92" width="8" height="8" fill="#9DC0CA"/>
<rect x="52" y="92" width="8" height="8" fill="#333333"/>
<rect x="60" y="92" width="8" height="8" fill="#333333"/>
<rect x="68" y="92" width="8" height="8" fill="#9DC0CA"/>
<rect x="76" y="92" width="8" height="8" fill="#9DC0CA"/>
<rect x="84" y="92" width="8" height="8" fill="#E98263"/>
<rect x="92" y="92" width="8" height="8" fill="#E98263"/>
<rect x="100" y="92" width="8" height="8" fill="#E98263"/>
<rect x="108" y="92" width="8" height="8" fill="#E98263"/>
<rect x="116" y="92" width="8" height="8" fill="#E98263"/>
<rect x="124" y="92" width="8" height="8" fill="#E98263"/>
<rect x="132" y="92" width="8" height="8" fill="#E98263"/>
<rect x="140" y="92" width="8" height="8" fill="#E98263"/>
<rect x="148" y="92" width="8" height="8" fill="#E98263"/>
<rect x="156" y="92" width="8" height="8" fill="#E98263"/>
<rect x="164" y="92" width="8" height="8" fill="#E98263"/>
<rect x="172" y="92" width="8" height="8" fill="#E98263"/>
<rect x="180" y="92" width="8" height="8" fill="#9DC0CA"/>
<rect x="188" y="92" width="8" height="8" fill="#333333"/>
<rect x="196" y="92" width="8" height="8" fill="#333333"/>
<rect x="204" y="92" width="8" height="8" fill="#333333"/>
<rect x="212" y="92" width="8" height="8" fill="#9DC0CA"/>
<rect x="220" y="92" width="8" height="8" fill="#333333"/>
<rect x="36" y="100" width="8" height="8" fill="#333333"/>
<rect x="44" y="100" width="8" height="8" fill="#9DC0CA"/>
<rect x="52" y="100" width="8" height="8" fill="#333333"/>
<rect x="60" y="100" width="8" height="8" fill="#9DC0CA"/>
<rect x="68" y="100" width="8" height="8" fill="#333333"/>
<rect x="76" y="100" width="8" height="8" fill="#9DC0CA"/>
<rect x="84" y="100" width="8" height="8" fill="#E98263"/>
<rect x="92" y="100" width="8" height="8" fill="#E98263"/>
<rect x="100" y="100" width="8" height="8" fill="#E98263"/>
<rect x="108" y="100" width="8" height="8" fill="#E98263"/>
<rect x="116" y="100" width="8" height="8" fill="#E98263"/>
<rect x="124" y="100" width="8" height="8" fill="#E98263"/>
<rect x="132" y="100" width="8" height="8" fill="#E98263"/>
<rect x="140" y="100" width="8" height="8" fill="#E98263"/>
<rect x="148" y="100" width="8" height="8" fill="#E98263"/>
<rect x="156" y="100" width="8" height="8" fill="#E98263"/>
<rect x="164" y="100" width="8" height="8" fill="#E98263"/>
<rect x="172" y="100" width="8" height="8" fill="#E98263"/>
<rect x="180" y="100" width="8" height="8" fill="#E98263"/>
<rect x="188" y="100" width="8" height="8" fill="#333333"/>
<rect x="196" y="100" width="8" height="8" fill="#9DC0CA"/>
<rect x="204" y="100" width="8" height="8" fill="#9DC0CA"/>
<rect x="212" y="100" width="8" height="8" fill="#333333"/>
<rect x="220" y="100" width="8" height="8" fill="#9DC0CA"/>
<rect x="36" y="108" width="8" height="8" fill="#333333"/>
<rect x="44" y="108" width="8" height="8" fill="#9DC0CA"/>
<rect x="52" y="108" width="8" height="8" fill="#9DC0CA"/>
<rect x="60" y="108" width="8" height="8" fill="#9DC0CA"/>
<rect x="68" y="108" width="8" height="8" fill="#9DC0CA"/>
<rect x="76" y="108" width="8" height="8" fill="#E98263"/>
<rect x="84" y="108" width="8" height="8" fill="#E98263"/>
<rect x="92" y="108" width="8" height="8" fill="#E98263"/>
<rect x="100" y="108" width="8" height="8" fill="white"/>
<rect x="108" y="108" width="8" height="8" fill="white"/>
<rect x="116" y="108" width="8" height="8" fill="#E98263"/>
<rect x="124" y="108" width="8" height="8" fill="#E98263"/>
<rect x="132" y="108" width="8" height="8" fill="#E98263"/>
<rect x="140" y="108" width="8" height="8" fill="#E98263"/>
<rect x="148" y="108" width="8" height="8" fill="white"/>
<rect x="156" y="108" width="8" height="8" fill="white"/>
<rect x="164" y="108" width="8" height="8" fill="#E98263"/>
<rect x="172" y="108" width="8" height="8" fill="#E98263"/>
<rect x="180" y="108" width="8" height="8" fill="#E98263"/>
<rect x="188" y="108" width="8" height="8" fill="#9DC0CA"/>
<rect x="196" y="108" width="8" height="8" fill="#333333"/>
<rect x="204" y="108" width="8" height="8" fill="#9DC0CA"/>
<rect x="212" y="108" width="8" height="8" fill="#333333"/>
<rect x="220" y="108" width="8" height="8" fill="#9DC0CA"/>
<rect x="36" y="116" width="8" height="8" fill="#333333"/>
<rect x="44" y="116" width="8" height="8" fill="#333333"/>
<rect x="52" y="116" width="8" height="8" fill="#9DC0CA"/>
<rect x="60" y="116" width="8" height="8" fill="#333333"/>
<rect x="68" y="116" width="8" height="8" fill="#333333"/>
<rect x="76" y="116" width="8" height="8" fill="#E98263"/>
<rect x="84" y="116" width="8" height="8" fill="#E98263"/>
<rect x="92" y="116" width="8" height="8" fill="white"/>
<rect x="100" y="116" width="8" height="8" fill="white"/>
<rect x="108" y="116" width="8" height="8" fill="white"/>
<rect x="116" y="116" width="8" height="8" fill="white"/>
<rect x="124" y="116" width="8" height="8" fill="#E98263"/>
<rect x="132" y="116" width="8" height="8" fill="#E98263"/>
<rect x="140" y="116" width="8" height="8" fill="white"/>
<rect x="148" y="116" width="8" height="8" fill="white"/>
<rect x="156" y="116" width="8" height="8" fill="white"/>
<rect x="164" y="116" width="8" height="8" fill="white"/>
<rect x="172" y="116" width="8" height="8" fill="#E98263"/>
<rect x="180" y="116" width="8" height="8" fill="#E98263"/>
<rect x="188" y="116" width="8" height="8" fill="#E98263"/>
<rect x="196" y="116" width="8" height="8" fill="#9DC0CA"/>
<rect x="204" y="116" width="8" height="8" fill="#9DC0CA"/>
<rect x="212" y="116" width="8" height="8" fill="#333333"/>
<rect x="220" y="116" width="8" height="8" fill="#9DC0CA"/>
<rect x="36" y="124" width="8" height="8" fill="#9DC0CA"/>
<rect x="44" y="124" width="8" height="8" fill="#9DC0CA"/>
<rect x="52" y="124" width="8" height="8" fill="#9DC0CA"/>
<rect x="60" y="124" width="8" height="8" fill="#333333"/>
<rect x="68" y="124" width="8" height="8" fill="#9DC0CA"/>
<rect x="76" y="124" width="8" height="8" fill="#E98263"/>
<rect x="84" y="124" width="8" height="8" fill="#E98263"/>
<rect x="92" y="124" width="8" height="8" fill="white"/>
<rect x="100" y="124" width="8" height="8" fill="white"/>
<rect x="108" y="124" width="8" height="8" fill="white"/>
<rect x="116" y="124" width="8" height="8" fill="white"/>
<rect x="124" y="124" width="8" height="8" fill="#E98263"/>
<rect x="132" y="124" width="8" height="8" fill="#E98263"/>
<rect x="140" y="124" width="8" height="8" fill="white"/>
<rect x="148" y="124" width="8" height="8" fill="white"/>
<rect x="156" y="124" width="8" height="8" fill="white"/>
<rect x="164" y="124" width="8" height="8" fill="white"/>
<rect x="172" y="124" width="8" height="8" fill="#E98263"/>
<rect x="180" y="124" width="8" height="8" fill="#E98263"/>
<rect x="188" y="124" width="8" height="8" fill="#E98263"/>
<rect x="196" y="124" width="8" height="8" fill="#9DC0CA"/>
<rect x="204" y="124" width="8" height="8" fill="#333333"/>
<rect x="212" y="124" width="8" height="8" fill="#9DC0CA"/>
<rect x="220" y="124" width="8" height="8" fill="#333333"/>
<rect x="36" y="132" width="8" height="8" fill="#9DC0CA"/>
<rect x="44" y="132" width="8" height="8" fill="#333333"/>
<rect x="52" y="132" width="8" height="8" fill="#9DC0CA"/>
<rect x="60" y="132" width="8" height="8" fill="#333333"/>
<rect x="68" y="132" width="8" height="8" fill="#E98263"/>
<rect x="76" y="132" width="8" height="8" fill="#E98263"/>
<rect x="84" y="132" width="8" height="8" fill="#E98263"/>
<rect x="92" y="132" width="8" height="8" fill="#E98263"/>
<rect x="100" y="132" width="8" height="8" fill="white"/>
<rect x="108" y="132" width="8" height="8" fill="white"/>
<rect x="116" y="132" width="8" height="8" fill="#E98263"/>
<rect x="124" y="132" width="8" height="8" fill="#E98263"/>
<rect x="132" y="132" width="8" height="8" fill="#E98263"/>
<rect x="140" y="132" width="8" height="8" fill="#E98263"/>
<rect x="148" y="132" width="8" height="8" fill="white"/>
<rect x="156" y="132" width="8" height="8" fill="white"/>
<rect x="164" y="132" width="8" height="8" fill="#E98263"/>
<rect x="172" y="132" width="8" height="8" fill="#E98263"/>
<rect x="180" y="132" width="8" height="8" fill="#E98263"/>
<rect x="188" y="132" width="8" height="8" fill="#E98263"/>
<rect x="196" y="132" width="8" height="8" fill="#E98263"/>
<rect x="204" y="132" width="8" height="8" fill="#9DC0CA"/>
<rect x="212" y="132" width="8" height="8" fill="#9DC0CA"/>
<rect x="220" y="132" width="8" height="8" fill="#333333"/>
<rect x="36" y="140" width="8" height="8" fill="#333333"/>
<rect x="44" y="140" width="8" height="8" fill="#333333"/>
<rect x="52" y="140" width="8" height="8" fill="#9DC0CA"/>
<rect x="60" y="140" width="8" height="8" fill="#333333"/>
<rect x="68" y="140" width="8" height="8" fill="#E98263"/>
<rect x="76" y="140" width="8" height="8" fill="#E98263"/>
<rect x="84" y="140" width="8" height="8" fill="#E98263"/>
<rect x="92" y="140" width="8" height="8" fill="#E98263"/>
<rect x="100" y="140" width="8" height="8" fill="#E98263"/>
<rect x="108" y="140" width="8" height="8" fill="#E98263"/>
<rect x="116" y="140" width="8" height="8" fill="#E98263"/>
<rect x="124" y="140" width="8" height="8" fill="#E98263"/>
<rect x="132" y="140" width="8" height="8" fill="#E98263"/>
<rect x="140" y="140" width="8" height="8" fill="#E98263"/>
<rect x="148" y="140" width="8" height="8" fill="#E98263"/>
<rect x="156" y="140" width="8" height="8" fill="#E98263"/>
<rect x="164" y="140" width="8" height="8" fill="#E98263"/>
<rect x="172" y="140" width="8" height="8" fill="#E98263"/>
<rect x="180" y="140" width="8" height="8" fill="#E98263"/>
<rect x="188" y="140" width="8" height="8" fill="#E98263"/>
<rect x="196" y="140" width="8" height="8" fill="#E98263"/>
<rect x="204" y="140" width="8" height="8" fill="#9DC0CA"/>
<rect x="212" y="140" width="8" height="8" fill="#333333"/>
<rect x="220" y="140" width="8" height="8" fill="#333333"/>
<rect x="36" y="148" width="8" height="8" fill="#9DC0CA"/>
<rect x="44" y="148" width="8" height="8" fill="#9DC0CA"/>
<rect x="52" y="148" width="8" height="8" fill="#333333"/>
<rect x="60" y="148" width="8" height="8" fill="#9DC0CA"/>
<rect x="68" y="148" width="8" height="8" fill="#E98263"/>
<rect x="76" y="148" width="8" height="8" fill="#E98263"/>
<rect x="84" y="148" width="8" height="8" fill="#E98263"/>
<rect x="92" y="148" width="8" height="8" fill="#E98263"/>
<rect x="100" y="148" width="8" height="8" fill="#E98263"/>
<rect x="108" y="148" width="8" height="8" fill="#E98263"/>
<rect x="116" y="148" width="8" height="8" fill="#E98263"/>
<rect x="124" y="148" width="8" height="8" fill="#E98263"/>
<rect x="132" y="148" width="8" height="8" fill="#E98263"/>
<rect x="140" y="148" width="8" height="8" fill="#E98263"/>
<rect x="148" y="148" width="8" height="8" fill="#E98263"/>
<rect x="156" y="148" width="8" height="8" fill="#E98263"/>
<rect x="164" y="148" width="8" height="8" fill="#E98263"/>
<rect x="172" y="148" width="8" height="8" fill="#E98263"/>
<rect x="180" y="148" width="8" height="8" fill="#E98263"/>
<rect x="188" y="148" width="8" height="8" fill="#E98263"/>
<rect x="196" y="148" width="8" height="8" fill="#E98263"/>
<rect x="204" y="148" width="8" height="8" fill="#E98263"/>
<rect x="212" y="148" width="8" height="8" fill="#9DC0CA"/>
<rect x="220" y="148" width="8" height="8" fill="#9DC0CA"/>
<rect x="36" y="156" width="8" height="8" fill="#333333"/>
<rect x="44" y="156" width="8" height="8" fill="#333333"/>
<rect x="52" y="156" width="8" height="8" fill="#9DC0CA"/>
<rect x="60" y="156" width="8" height="8" fill="#9DC0CA"/>
<rect x="68" y="156" width="8" height="8" fill="#E98263"/>
<rect x="76" y="156" width="8" height="8" fill="#E98263"/>
<rect x="84" y="156" width="8" height="8" fill="#E98263"/>
<rect x="92" y="156" width="8" height="8" fill="#E98263"/>
<rect x="100" y="156" width="8" height="8" fill="#E98263"/>
<rect x="108" y="156" width="8" height="8" fill="#E98263"/>
<rect x="116" y="156" width="8" height="8" fill="#E98263"/>
<rect x="124" y="156" width="8" height="8" fill="#E98263"/>
<rect x="132" y="156" width="8" height="8" fill="#E98263"/>
<rect x="140" y="156" width="8" height="8" fill="#E98263"/>
<rect x="148" y="156" width="8" height="8" fill="#E98263"/>
<rect x="156" y="156" width="8" height="8" fill="#E98263"/>
<rect x="164" y="156" width="8" height="8" fill="#E98263"/>
<rect x="172" y="156" width="8" height="8" fill="#E98263"/>
<rect x="180" y="156" width="8" height="8" fill="#E98263"/>
<rect x="188" y="156" width="8" height="8" fill="#E98263"/>
<rect x="196" y="156" width="8" height="8" fill="#E98263"/>
<rect x="204" y="156" width="8" height="8" fill="#E98263"/>
<rect x="212" y="156" width="8" height="8" fill="#9DC0CA"/>
<rect x="220" y="156" width="8" height="8" fill="#333333"/>
<rect x="36" y="164" width="8" height="8" fill="#9DC0CA"/>
<rect x="44" y="164" width="8" height="8" fill="#333333"/>
<rect x="52" y="164" width="8" height="8" fill="#333333"/>
<rect x="60" y="164" width="8" height="8" fill="#E98263"/>
<rect x="68" y="164" width="8" height="8" fill="#E98263"/>
<rect x="76" y="164" width="8" height="8" fill="#E98263"/>
<rect x="84" y="164" width="8" height="8" fill="#E98263"/>
<rect x="92" y="164" width="8" height="8" fill="#E98263"/>
<rect x="100" y="164" width="8" height="8" fill="#E98263"/>
<rect x="108" y="164" width="8" height="8" fill="#E98263"/>
<rect x="116" y="164" width="8" height="8" fill="#E98263"/>
<rect x="124" y="164" width="8" height="8" fill="#E98263"/>
<rect x="132" y="164" width="8" height="8" fill="#E98263"/>
<rect x="140" y="164" width="8" height="8" fill="#E98263"/>
<rect x="148" y="164" width="8" height="8" fill="#E98263"/>
<rect x="156" y="164" width="8" height="8" fill="#E98263"/>
<rect x="164" y="164" width="8" height="8" fill="#E98263"/>
<rect x="172" y="164" width="8" height="8" fill="#E98263"/>
<rect x="180" y="164" width="8" height="8" fill="#E98263"/>
<rect x="188" y="164" width="8" height="8" fill="#E98263"/>
<rect x="196" y="164" width="8" height="8" fill="#E98263"/>
<rect x="204" y="164" width="8" height="8" fill="#E98263"/>
<rect x="212" y="164" width="8" height="8" fill="#E98263"/>
<rect x="220" y="164" width="8" height="8" fill="#9DC0CA"/>
<rect x="36" y="172" width="8" height="8" fill="#9DC0CA"/>
<rect x="44" y="172" width="8" height="8" fill="#9DC0CA"/>
<rect x="52" y="172" width="8" height="8" fill="#9DC0CA"/>
<rect x="60" y="172" width="8" height="8" fill="#9DC0CA"/>
<rect x="68" y="172" width="8" height="8" fill="#9DC0CA"/>
<rect x="76" y="172" width="8" height="8" fill="#9DC0CA"/>
<rect x="84" y="172" width="8" height="8" fill="#9DC0CA"/>
<rect x="92" y="172" width="8" height="8" fill="#E98263"/>
<rect x="100" y="172" width="8" height="8" fill="#E98263"/>
<rect x="108" y="172" width="8" height="8" fill="#E98263"/>
<rect x="116" y="172" width="8" height="8" fill="#E98263"/>
<rect x="124" y="172" width="8" height="8" fill="#E98263"/>
<rect x="132" y="172" width="8" height="8" fill="#E98263"/>
<rect x="140" y="172" width="8" height="8" fill="#E98263"/>
<rect x="148" y="172" width="8" height="8" fill="#E98263"/>
<rect x="156" y="172" width="8" height="8" fill="#E98263"/>
<rect x="164" y="172" width="8" height="8" fill="#E98263"/>
<rect x="172" y="172" width="8" height="8" fill="#E98263"/>
<rect x="180" y="172" width="8" height="8" fill="#E98263"/>
<rect x="188" y="172" width="8" height="8" fill="#E98263"/>
<rect x="196" y="172" width="8" height="8" fill="#E98263"/>
<rect x="204" y="172" width="8" height="8" fill="#E98263"/>
<rect x="212" y="172" width="8" height="8" fill="#E98263"/>
<rect x="220" y="172" width="8" height="8" fill="#333333"/>
<rect x="36" y="180" width="8" height="8" fill="#333333"/>
<rect x="44" y="180" width="8" height="8" fill="#333333"/>
<rect x="52" y="180" width="8" height="8" fill="#333333"/>
<rect x="60" y="180" width="8" height="8" fill="#333333"/>
<rect x="68" y="180" width="8" height="8" fill="#333333"/>
<rect x="76" y="180" width="8" height="8" fill="#333333"/>
<rect x="84" y="180" width="8" height="8" fill="#9DC0CA"/>
<rect x="92" y="180" width="8" height="8" fill="#E98263"/>
<rect x="100" y="180" width="8" height="8" fill="#E98263"/>
<rect x="108" y="180" width="8" height="8" fill="#E98263"/>
<rect x="116" y="180" width="8" height="8" fill="#E98263"/>
<rect x="124" y="180" width="8" height="8" fill="#E98263"/>
<rect x="132" y="180" width="8" height="8" fill="#E98263"/>
<rect x="140" y="180" width="8" height="8" fill="#E98263"/>
<rect x="148" y="180" width="8" height="8" fill="#E98263"/>
<rect x="156" y="180" width="8" height="8" fill="#E98263"/>
<rect x="164" y="180" width="8" height="8" fill="#E98263"/>
<rect x="172" y="180" width="8" height="8" fill="#E98263"/>
<rect x="180" y="180" width="8" height="8" fill="#E98263"/>
<rect x="188" y="180" width="8" height="8" fill="#E98263"/>
<rect x="196" y="180" width="8" height="8" fill="#E98263"/>
<rect x="204" y="180" width="8" height="8" fill="#333333"/>
<rect x="212" y="180" width="8" height="8" fill="#9DC0CA"/>
<rect x="220" y="180" width="8" height="8" fill="#9DC0CA"/>
<rect x="36" y="188" width="8" height="8" fill="#333333"/>
<rect x="44" y="188" width="8" height="8" fill="#9DC0CA"/>
<rect x="52" y="188" width="8" height="8" fill="#9DC0CA"/>
<rect x="60" y="188" width="8" height="8" fill="#9DC0CA"/>
<rect x="68" y="188" width="8" height="8" fill="#9DC0CA"/>
<rect x="76" y="188" width="8" height="8" fill="#333333"/>
<rect x="84" y="188" width="8" height="8" fill="#9DC0CA"/>
<rect x="92" y="188" width="8" height="8" fill="#E98263"/>
<rect x="100" y="188" width="8" height="8" fill="#E98263"/>
<rect x="108" y="188" width="8" height="8" fill="#E98263"/>
<rect x="116" y="188" width="8" height="8" fill="#E98263"/>
<rect x="124" y="188" width="8" height="8" fill="#E98263"/>
<rect x="132" y="188" width="8" height="8" fill="#E98263"/>
<rect x="140" y="188" width="8" height="8" fill="#E98263"/>
<rect x="148" y="188" width="8" height="8" fill="#E98263"/>
<rect x="156" y="188" width="8" height="8" fill="#E98263"/>
<rect x="164" y="188" width="8" height="8" fill="#9DC0CA"/>
<rect x="172" y="188" width="8" height="8" fill="#9DC0CA"/>
<rect x="180" y="188" width="8" height="8" fill="#333333"/>
<rect x="188" y="188" width="8" height="8" fill="#9DC0CA"/>
<rect x="196" y="188" width="8" height="8" fill="#9DC0CA"/>
<rect x="204" y="188" width="8" height="8" fill="#333333"/>
<rect x="212" y="188" width="8" height="8" fill="#333333"/>
<rect x="220" y="188" width="8" height="8" fill="#333333"/>
<rect x="36" y="196" width="8" height="8" fill="#333333"/>
<rect x="44" y="196" width="8" height="8" fill="#9DC0CA"/>
<rect x="52" y="196" width="8" height="8" fill="#333333"/>
<rect x="60" y="196" width="8" height="8" fill="#333333"/>
<rect x="68" y="196" width="8" height="8" fill="#9DC0CA"/>
<rect x="76" y="196" width="8" height="8" fill="#333333"/>
<rect x="84" y="196" width="8" height="8" fill="#9DC0CA"/>
<rect x="92" y="196" width="8" height="8" fill="#E98263"/>
<rect x="100" y="196" width="8" height="8" fill="#E98263"/>
<rect x="108" y="196" width="8" height="8" fill="#E98263"/>
<rect x="116" y="196" width="8" height="8" fill="#333333"/>
<rect x="124" y="196" width="8" height="8" fill="#9DC0CA"/>
<rect x="132" y="196" width="8" height="8" fill="#9DC0CA"/>
<rect x="140" y="196" width="8" height="8" fill="#9DC0CA"/>
<rect x="148" y="196" width="8" height="8" fill="#9DC0CA"/>
<rect x="156" y="196" width="8" height="8" fill="#333333"/>
<rect x="164" y="196" width="8" height="8" fill="#9DC0CA"/>
<rect x="172" y="196" width="8" height="8" fill="#9DC0CA"/>
<rect x="180" y="196" width="8" height="8" fill="#9DC0CA"/>
<rect x="188" y="196" width="8" height="8" fill="#333333"/>
<rect x="196" y="196" width="8" height="8" fill="#9DC0CA"/>
<rect x="204" y="196" width="8" height="8" fill="#9DC0CA"/>
<rect x="212" y="196" width="8" height="8" fill="#9DC0CA"/>
<rect x="220" y="196" width="8" height="8" fill="#333333"/>
<rect x="36" y="204" width="8" height="8" fill="#333333"/>
<rect x="44" y="204" width="8" height="8" fill="#9DC0CA"/>
<rect x="52" y="204" width="8" height="8" fill="#333333"/>
<rect x="60" y="204" width="8" height="8" fill="#333333"/>
<rect x="68" y="204" width="8" height="8" fill="#9DC0CA"/>
<rect x="76" y="204" width="8" height="8" fill="#333333"/>
<rect x="84" y="204" width="8" height="8" fill="#9DC0CA"/>
<rect x="92" y="204" width="8" height="8" fill="#9DC0CA"/>
<rect x="100" y="204" width="8" height="8" fill="#333333"/>
<rect x="108" y="204" width="8" height="8" fill="#9DC0CA"/>
<rect x="116" y="204" width="8" height="8" fill="#9DC0CA"/>
<rect x="124" y="204" width="8" height="8" fill="#9DC0CA"/>
<rect x="132" y="204" width="8" height="8" fill="#333333"/>
<rect x="140" y="204" width="8" height="8" fill="#9DC0CA"/>
<rect x="148" y="204" width="8" height="8" fill="#333333"/>
<rect x="156" y="204" width="8" height="8" fill="#9DC0CA"/>
<rect x="164" y="204" width="8" height="8" fill="#9DC0CA"/>
<rect x="172" y="204" width="8" height="8" fill="#333333"/>
<rect x="180" y="204" width="8" height="8" fill="#333333"/>
<rect x="188" y="204" width="8" height="8" fill="#9DC0CA"/>
<rect x="196" y="204" width="8" height="8" fill="#9DC0CA"/>
<rect x="204" y="204" width="8" height="8" fill="#9DC0CA"/>
<rect x="212" y="204" width="8" height="8" fill="#333333"/>
<rect x="220" y="204" width="8" height="8" fill="#333333"/>
<rect x="36" y="212" width="8" height="8" fill="#333333"/>
<rect x="44" y="212" width="8" height="8" fill="#9DC0CA"/>
<rect x="52" y="212" width="8" height="8" fill="#9DC0CA"/>
<rect x="60" y="212" width="8" height="8" fill="#9DC0CA"/>
<rect x="68" y="212" width="8" height="8" fill="#9DC0CA"/>
<rect x="76" y="212" width="8" height="8" fill="#333333"/>
<rect x="84" y="212" width="8" height="8" fill="#9DC0CA"/>
<rect x="92" y="212" width="8" height="8" fill="#333333"/>
<rect x="100" y="212" width="8" height="8" fill="#333333"/>
<rect x="108" y="212" width="8" height="8" fill="#9DC0CA"/>
<rect x="116" y="212" width="8" height="8" fill="#333333"/>
<rect x="124" y="212" width="8" height="8" fill="#333333"/>
<rect x="132" y="212" width="8" height="8" fill="#9DC0CA"/>
<rect x="140" y="212" width="8" height="8" fill="#9DC0CA"/>
<rect x="148" y="212" width="8" height="8" fill="#333333"/>
<rect x="156" y="212" width="8" height="8" fill="#9DC0CA"/>
<rect x="164" y="212" width="8" height="8" fill="#9DC0CA"/>
<rect x="172" y="212" width="8" height="8" fill="#333333"/>
<rect x="180" y="212" width="8" height="8" fill="#9DC0CA"/>
<rect x="188" y="212" width="8" height="8" fill="#333333"/>
<rect x="196" y="212" width="8" height="8" fill="#333333"/>
<rect x="204" y="212" width="8" height="8" fill="#333333"/>
<rect x="212" y="212" width="8" height="8" fill="#9DC0CA"/>
<rect x="220" y="212" width="8" height="8" fill="#9DC0CA"/>
<rect x="36" y="220" width="8" height="8" fill="#333333"/>
<rect x="44" y="220" width="8" height="8" fill="#333333"/>
<rect x="52" y="220" width="8" height="8" fill="#333333"/>
<rect x="60" y="220" width="8" height="8" fill="#333333"/>
<rect x="68" y="220" width="8" height="8" fill="#333333"/>
<rect x="76" y="220" width="8" height="8" fill="#333333"/>
<rect x="84" y="220" width="8" height="8" fill="#9DC0CA"/>
<rect x="92" y="220" width="8" height="8" fill="#9DC0CA"/>
<rect x="100" y="220" width="8" height="8" fill="#9DC0CA"/>
<rect x="108" y="220" width="8" height="8" fill="#333333"/>
<rect x="116" y="220" width="8" height="8" fill="#333333"/>
<rect x="124" y="220" width="8" height="8" fill="#9DC0CA"/>
<rect x="132" y="220" width="8" height="8" fill="#333333"/>
<rect x="140" y="220" width="8" height="8" fill="#9DC0CA"/>
<rect x="148" y="220" width="8" height="8" fill="#333333"/>
<rect x="156" y="220" width="8" height="8" fill="#333333"/>
<rect x="164" y="220" width="8" height="8" fill="#333333"/>
<rect x="172" y="220" width="8" height="8" fill="#9DC0CA"/>
<rect x="180" y="220" width="8" height="8" fill="#333333"/>
<rect x="188" y="220" width="8" height="8" fill="#9DC0CA"/>
<rect x="196" y="220" width="8" height="8" fill="#333333"/>
<rect x="204" y="220" width="8" height="8" fill="#9DC0CA"/>
<rect x="212" y="220" width="8" height="8" fill="#333333"/>
<rect x="220" y="220" width="8" height="8" fill="#9DC0CA"/>
<rect x="30" y="30" width="204" height="204" stroke="#9DC0CA" stroke-width="12"/>
<path fill-rule="evenodd" clip-rule="evenodd" d="M39.9652 0H8C3.58172 0 0 3.58171 0 7.99999V39.9652L4 39.9652V7.99999C4 5.79086 5.79086 4 8 4H39.9652V0ZM260 39.9652V8C260 5.79086 258.209 4 256 4H224.035V0H256C260.418 0 264 3.58172 264 8V39.9652L260 39.9652ZM224.035 260H256C258.209 260 260 258.209 260 256V224.035H264V256C264 260.418 260.418 264 256 264H224.035V260ZM4 224.035V256C4 258.209 5.79086 260 7.99999 260H39.9652V264H7.99999C3.58171 264 0 260.418 0 256V224.035H4Z" fill="#333333"/>
</svg>
