<svg width="49" height="48" viewBox="0 0 49 48" fill="none" xmlns="http://www.w3.org/2000/svg">
<g clip-path="url(#clip0_160_2369)">
<path d="M24.5 48C37.7548 48 48.5 37.2548 48.5 24C48.5 10.7452 37.7548 0 24.5 0C11.2452 0 0.5 10.7452 0.5 24C0.5 37.2548 11.2452 48 24.5 48Z" fill="#1DA1F2"/>
<path d="M20.1077 36.66C30.7517 36.66 36.5717 27.84 36.5717 20.196C36.5717 19.944 36.5717 19.692 36.5597 19.452C37.6877 18.636 38.6717 17.616 39.4517 16.452C38.4197 16.908 37.3037 17.22 36.1277 17.364C37.3277 16.644 38.2397 15.516 38.6717 14.16C37.5557 14.82 36.3197 15.3 34.9997 15.564C33.9437 14.436 32.4437 13.74 30.7757 13.74C27.5837 13.74 24.9917 16.332 24.9917 19.524C24.9917 19.98 25.0397 20.424 25.1477 20.844C20.3357 20.604 16.0757 18.3 13.2197 14.796C12.7277 15.648 12.4397 16.644 12.4397 17.7C12.4397 19.704 13.4597 21.48 15.0197 22.512C14.0717 22.488 13.1837 22.224 12.4037 21.792C12.4037 21.816 12.4037 21.84 12.4037 21.864C12.4037 24.672 14.3957 27 17.0477 27.54C16.5677 27.672 16.0517 27.744 15.5237 27.744C15.1517 27.744 14.7917 27.708 14.4317 27.636C15.1637 29.94 17.2997 31.608 19.8317 31.656C17.8517 33.204 15.3557 34.128 12.6437 34.128C12.1757 34.128 11.7197 34.104 11.2637 34.044C13.7957 35.7 16.8437 36.66 20.1077 36.66Z" fill="white"/>
</g>
<defs>
<clipPath id="clip0_160_2369">
<rect x="0.5" width="48" height="48" rx="24" fill="white"/>
</clipPath>
</defs>
</svg>
