<svg width="514" height="532" viewBox="0 0 514 532" fill="none" xmlns="http://www.w3.org/2000/svg">
<path d="M322 90.4219C284 78.4219 6 208.207 6 208.207C188.928 257.775 221.343 364.903 309 525.207C369.5 428.207 479 208.207 453.5 181.922C421.667 162.255 354.5 117.422 322 90.4219Z" fill="#9DC0CA"/>
<path d="M453.759 182.145L322.133 89.6531L238.742 186.593L325.505 295.677L453.759 182.145Z" fill="#E98263"/>
<path d="M313.01 82.5274L184.323 47.1437L120.663 95.5898L242.539 162.69L313.01 82.5274Z" fill="#E98263"/>
<path d="M183.339 256.771L120.002 216.466L154.55 181.918L222.925 204.23L183.339 256.771Z" fill="#E98263"/>
<path d="M492.123 336.613L448.602 199.63L364.557 277.511L450.202 396.959L492.123 336.613Z" fill="#E98263"/>
<path d="M308.155 404.619L267.849 341.281L320.39 301.695L342.702 370.071L308.155 404.619Z" fill="#E98263"/>
<path d="M314.409 294.722L237.337 200.122L189.203 262.637L261.565 334.998L314.409 294.722Z" fill="#E98263"/>
<path d="M512.884 51.5287L476.345 1.24847L322.22 75.5845L467.96 178.192L512.884 51.5287Z" fill="#E98263"/>
<path d="M441.765 69.0195C435.405 75.3796 425.095 75.3811 418.737 69.0229C412.378 62.6648 412.38 52.3546 418.74 45.9945C425.1 39.6345 435.41 39.633 441.768 45.9911C448.127 52.3493 448.125 62.6595 441.765 69.0195Z" fill="#333333"/>
<path d="M474.233 101.487C467.873 107.847 457.562 107.849 451.204 101.491C444.846 95.1324 444.848 84.8223 451.208 78.4622C457.568 72.1022 467.878 72.1007 474.236 78.4588C480.594 84.817 480.593 95.1271 474.233 101.487Z" fill="#333333"/>
<path d="M200.798 297.262L207.275 303.739L147.301 358.924L143.548 359.8L200.798 297.262Z" fill="#333333"/>
<path d="M214.473 322.453L220.95 328.93L189.172 354.732L187.878 353.437L214.473 322.453Z" fill="#333333"/>
<path d="M348.877 129.338L307.753 129.338L311.523 212.613L396.169 217.753V176.63L348.877 129.338Z" fill="#F2C288"/>
<path d="M353.502 149.171L378.112 173.781L368.431 183.462L357.144 172.175L353.974 175.345L365.261 186.632L355.923 195.971L344.635 184.683L332.619 196.699L319.297 183.377L353.502 149.171Z" fill="#333333"/>
</svg>
