<svg width="80" height="80" viewBox="0 0 80 80" fill="none" xmlns="http://www.w3.org/2000/svg">
<g clip-path="url(#clip0_436_10478)">
<circle cx="40" cy="40" r="40" fill="#E98263"/>
<path d="M-8 104.955C-8 78.4087 13.4903 56.8889 40 56.8889C66.5097 56.8889 88 78.4087 88 104.955V138.601C88 165.147 66.5097 186.667 40 186.667C13.4903 186.667 -8 165.147 -8 138.601V104.955Z" fill="#FFD0B2"/>
<path d="M24.8889 58.6666C24.8889 59.0164 24.8919 59.3948 24.8975 59.7965C25.0095 67.8959 31.8998 74.4586 40 74.4586C48.1002 74.4586 54.9905 67.8959 55.1025 59.7965C55.1081 59.3948 55.1111 59.0164 55.1111 58.6666C57.2563 59.3785 59.3343 60.2379 61.3333 61.2326C61.3333 71.3475 64 84.8888 64 84.8888H16C16 84.8888 18.6667 71.3475 18.6667 61.2326C20.6657 60.2379 22.7437 59.3785 24.8889 58.6666Z" fill="#4A89AC"/>
<path d="M65.7775 29.2508C66.2872 42.7185 61.7775 52.4444 59.1108 59.1111C58.2219 46.6666 47.8024 23.11 46.6663 20C45.2367 21.4405 28.8886 25.9171 25.333 54.6666C19.5552 42.2222 17.333 32.4193 17.333 29.7777C17.333 15.2187 25.333 -0.888917 43.9997 3.99997C58.2219 0.888858 65.7775 14.6917 65.7775 29.2508Z" fill="#333333"/>
<rect x="32" y="40.8889" width="16" height="24.8889" rx="8" fill="#FFD0B2"/>
<path fill-rule="evenodd" clip-rule="evenodd" d="M48 58.0883C46.62 58.4653 45.1378 58.6666 43.5556 58.6666C38.7666 58.6666 34.8937 56.8223 32 53.845V50.6666C32 46.2483 35.5817 42.6666 40 42.6666C44.4183 42.6666 48 46.2483 48 50.6666V58.0883Z" fill="#9B3C00" fill-opacity="0.25"/>
<path d="M23.1113 32.8889C23.1113 23.0705 26.6669 13.3334 40.8891 13.3334C55.1113 13.3334 58.6669 23.0705 58.6669 32.8889C58.6669 44.373 52.4447 55.1112 40.8891 55.1112C29.3336 55.1112 23.1113 44.373 23.1113 32.8889Z" fill="#FFD0B2"/>
<path d="M23.1113 32.8889C23.1113 23.0705 26.6669 13.3334 40.8891 13.3334C55.1113 13.3334 58.6669 23.0705 58.6669 32.8889C58.6669 44.373 52.4447 55.1112 40.8891 55.1112C29.3336 55.1112 23.1113 44.373 23.1113 32.8889Z" fill="#9B3C00" fill-opacity="0.25"/>
<path d="M64.0004 34.2222C64.0004 36.8888 61.7782 39.9999 59.1115 39.9999C56.4449 39.9999 54.2227 37.8111 54.2227 35.1111C54.2227 32.411 56.4449 30.2222 59.1115 30.2222C61.7782 30.2222 64.0004 31.5555 64.0004 34.2222Z" fill="#FFD0B2"/>
<path fill-rule="evenodd" clip-rule="evenodd" d="M40.4448 13.3365C54.2967 13.5379 57.778 23.1736 57.778 32.8889C57.778 44.2248 51.7152 54.834 40.4446 55.1058C29.1741 54.834 23.1113 44.2248 23.1113 32.8889C23.1113 23.1735 26.5926 13.5377 40.4448 13.3365Z" fill="#FFD0B2"/>
<path d="M40.1419 34.6666C39.6746 36.8492 37.3382 45.5795 41.7773 43.1241" stroke="#333333" stroke-linecap="round"/>
<path d="M38.2227 47.1111C39.0128 48.4105 42.2227 48.4444 43.1115 46.2222" stroke="#333333" stroke-linecap="round"/>
<circle cx="33.3333" cy="33.3333" r="1.33333" fill="#333333"/>
<circle cx="48.4447" cy="33.3333" r="1.33333" fill="#333333"/>
<path d="M59.5557 32.8889C60.4446 32.8889 61.3334 33.6508 61.3334 34.6667" stroke="#333333" stroke-linecap="round"/>
<path d="M17.7779 34.2222C17.7779 36.8888 20.0001 39.9999 22.6668 39.9999C25.3334 39.9999 27.5557 37.8111 27.5557 35.1111C27.5557 32.411 25.3334 30.2222 22.6668 30.2222C20.0001 30.2222 17.7779 31.5555 17.7779 34.2222Z" fill="#FFD0B2"/>
<path d="M22.2227 32.8889C21.3338 32.8889 20.4449 33.6508 20.4449 34.6667" stroke="#333333" stroke-linecap="round"/>
<path d="M59.5552 43.5555C58.2219 20.4444 48.8886 20.8889 46.6663 20C28.4441 44.8889 24.8886 26.2222 23.5552 58.6667C17.333 43.5555 17.333 32.4193 17.333 29.7778C17.333 15.2187 24.8786 3.55554 40.849 3.55554C56.8194 3.55554 60.8886 16 59.5552 43.5555Z" fill="#333333"/>
<circle cx="40.8891" cy="77.3333" r="1.77778" fill="#9DC0CA"/>
</g>
<defs>
<clipPath id="clip0_436_10478">
<rect width="80" height="80" rx="40" fill="white"/>
</clipPath>
</defs>
</svg>
