<svg width="120" height="120" viewBox="0 0 120 120" fill="none" xmlns="http://www.w3.org/2000/svg">
<g clip-path="url(#clip0_228_2733)">
<circle cx="60" cy="60" r="60" fill="#E98263"/>
<path d="M76.7869 64.3768C72.8367 64.3768 33.333 31.9666 33.333 41.8881C33.333 49.2427 72.1782 86.8655 72.1782 86.8655C72.1782 86.8655 79.4205 96.787 78.1037 105.386C79.4205 104.724 81.885 102.079 80.7373 98.1099C82.7125 103.401 83.3709 112 83.3709 112C83.3709 112 124.85 97.4485 76.7869 64.3768Z" fill="#333333"/>
<path d="M-12 157.432C-12 117.613 20.2355 85.3334 60 85.3334C99.7645 85.3334 132 117.613 132 157.432V207.901C132 247.72 99.7645 280 60 280C20.2355 280 -12 247.72 -12 207.901V157.432Z" fill="#FFD0B2"/>
<path d="M-12 157.432C-12 121.707 13.9474 92.051 48 86.3302C48 96 60 112.667 60 112.667C60 112.667 72 96 72 86.3302C106.053 92.051 132 121.707 132 157.432V207.901C132 247.72 99.7645 280 60 280C20.2355 280 -12 247.72 -12 207.901V157.432Z" fill="#333333"/>
<rect x="48" y="61.3334" width="24" height="37.3333" rx="12" fill="#FFD0B2"/>
<path d="M95.9997 54C95.9997 58 92.6663 62.6667 88.6663 62.6667C84.6663 62.6667 81.333 59.3834 81.333 55.3333C81.333 51.2832 84.6663 48 88.6663 48C92.6663 48 95.9997 50 95.9997 54Z" fill="#FFD0B2"/>
<path fill-rule="evenodd" clip-rule="evenodd" d="M72 89.7992C69.93 90.3646 67.7067 90.6666 65.3333 90.6666C58.1499 90.6666 52.3405 87.9002 48 83.4342V78.6666C48 72.0392 53.3726 66.6666 60 66.6666C66.6274 66.6666 72 72.0392 72 78.6666V89.7992Z" fill="#9B3C00" fill-opacity="0.25"/>
<path d="M34.667 52C34.667 37.2724 40.0003 22.6666 61.3337 22.6666C82.667 22.6666 88.0003 37.2724 88.0003 52C88.0003 69.226 78.667 85.3333 61.3337 85.3333C44.0003 85.3333 34.667 69.226 34.667 52Z" fill="#FFD0B2"/>
<path d="M34.667 52C34.667 37.2724 40.0003 22.6666 61.3337 22.6666C82.667 22.6666 88.0003 37.2724 88.0003 52C88.0003 69.226 78.667 85.3333 61.3337 85.3333C44.0003 85.3333 34.667 69.226 34.667 52Z" fill="#9B3C00" fill-opacity="0.25"/>
<path fill-rule="evenodd" clip-rule="evenodd" d="M60.6673 22.6715C81.4451 22.9735 86.667 37.4271 86.667 52C86.667 69.004 77.5728 84.9178 60.6668 85.3254C43.7611 84.9176 34.667 69.0039 34.667 52C34.667 37.427 39.889 22.9733 60.6673 22.6715Z" fill="#FFD0B2"/>
<path d="M89.333 52C90.6663 52 91.9997 53.1429 91.9997 54.6667" stroke="#333333" stroke-linecap="round"/>
<path d="M26.6663 54C26.6663 58 29.9997 62.6667 33.9997 62.6667C37.9997 62.6667 41.333 59.3834 41.333 55.3333C41.333 51.2832 37.9997 48 33.9997 48C29.9997 48 26.6663 50 26.6663 54Z" fill="#FFD0B2"/>
<path d="M33.333 52C31.9997 52 30.6663 53.1429 30.6663 54.6667" stroke="#333333" stroke-linecap="round"/>
<path fill-rule="evenodd" clip-rule="evenodd" d="M36.5246 38.7631C35.1801 42.8756 34.667 47.432 34.667 52.0001C34.667 55.1389 34.9769 58.2405 35.5886 61.2143C37.7493 64.8676 41.8344 66.4195 49.3337 66.6077C50.7758 66.6439 52.3442 65.2477 54.0495 63.7297C56.0501 61.9487 58.2392 60 60.6337 60C63.3566 60 65.8322 61.9573 68.0814 63.7355C69.9911 65.2453 71.7376 66.6261 73.3337 66.5701C80.9162 66.3042 85.104 64.4242 87.2732 60.2086C87.7561 57.544 88.0003 54.7867 88.0003 52.0001C88.0003 47.3592 87.4707 42.7304 86.0778 38.5669C84.6357 38.4664 82.5694 38.8695 79.617 39.4454L79.617 39.4454C77.8562 39.7889 75.7803 40.1938 73.3337 40.5901C72.0313 40.801 70.624 41.4071 69.1033 42.0619C66.7865 43.0596 64.2065 44.1706 61.3337 44.1706C58.3737 44.1706 55.752 43.0286 53.4268 42.0157C51.9457 41.3706 50.5849 40.7778 49.3337 40.566C46.9659 40.1651 44.9902 39.7589 43.3333 39.4182C39.9296 38.7185 37.8715 38.2954 36.5246 38.7631ZM72.667 57.3334C75.9807 57.3334 78.667 55.244 78.667 52.6667C78.667 50.0894 75.9807 48 72.667 48C69.3533 48 66.667 50.0894 66.667 52.6667C66.667 55.244 69.3533 57.3334 72.667 57.3334ZM56.0003 52.6667C56.0003 55.244 53.314 57.3334 50.0003 57.3334C46.6866 57.3334 44.0003 55.244 44.0003 52.6667C44.0003 50.0894 46.6866 48 50.0003 48C53.314 48 56.0003 50.0894 56.0003 52.6667Z" fill="#333333"/>
<path d="M60.2138 54.6666C59.5129 57.9405 56.0083 71.0359 62.667 67.3528" stroke="#333333" stroke-linecap="round"/>
<path d="M57.333 73.3333C58.5182 75.2825 63.333 75.3333 64.6663 72" stroke="#333333" stroke-linecap="round"/>
<circle cx="50" cy="52.6666" r="2" fill="#333333"/>
<circle cx="72.667" cy="52.6666" r="2" fill="#333333"/>
<path d="M87.9996 48C81.6588 48 62.6663 34.6667 61.3329 32C59.9996 34.6667 40.0385 46.6667 34.8009 48C31.7955 44 32.2393 30.8178 34.8009 24.6667C39.0392 14.4894 47.3394 8 61.5407 8C75.4318 8 84.1901 14.5805 88.911 24.6667C91.9333 31.124 91.17 44 87.9996 48Z" fill="#333333"/>
</g>
<defs>
<clipPath id="clip0_228_2733">
<rect width="120" height="120" rx="60" fill="white"/>
</clipPath>
</defs>
</svg>
