<svg width="120" height="120" viewBox="0 0 120 120" fill="none" xmlns="http://www.w3.org/2000/svg">
<g clip-path="url(#clip0_228_2732)">
<circle cx="60" cy="60" r="60" fill="#F2C288"/>
<path d="M94.6663 41.3333C90.6664 41.3333 45.333 41.3333 29.333 41.3333C29.333 73.3333 37.9997 92 37.9997 92H79.9997C79.9997 92 94.6663 76.6667 94.6663 41.3333Z" fill="#333333"/>
<path d="M30.667 41.3333C30.667 73.3333 38.0003 92.6666 38.0003 92.6666" stroke="#333333"/>
<path d="M78.6663 92.6667C78.6663 92.6667 93.333 76.6667 93.333 41.3333C93.333 76.6667 77.333 104 77.333 104" stroke="#333333"/>
<path d="M-12 157.432C-12 117.613 20.2355 85.3334 60 85.3334C99.7645 85.3334 132 117.613 132 157.432V207.901C132 247.72 99.7645 280 60 280C20.2355 280 -12 247.72 -12 207.901V157.432Z" fill="#FFD0B2"/>
<path d="M-12 157.432C-12 121.707 13.9474 92.051 48 86.3302C48 96 60 112.667 60 112.667C60 112.667 72 96 72 86.3302C106.053 92.051 132 121.707 132 157.432V207.901C132 247.72 99.7645 280 60 280C20.2355 280 -12 247.72 -12 207.901V157.432Z" fill="#4A89AC"/>
<path d="M59.333 141.333C56.6663 118 47.9997 100 47.9997 86.3302C13.9471 92.051 -12.0003 121.707 -12.0003 157.432C10.7651 134.667 39.9997 141.333 59.333 141.333Z" fill="#333333"/>
<path d="M60.667 141.333C63.3337 118 72.0003 100 72.0003 86.3302C106.053 92.051 132 121.707 132 157.432C109.235 134.667 80.0003 141.333 60.667 141.333Z" fill="#333333"/>
<rect x="48" y="61.3334" width="24" height="37.3333" rx="12" fill="#FFD0B2"/>
<path fill-rule="evenodd" clip-rule="evenodd" d="M72 84.4659C69.93 85.0314 67.7067 85.3334 65.3333 85.3334C58.1499 85.3334 52.3405 82.567 48 78.1009V73.3334C48 66.706 53.3726 61.3334 60 61.3334C66.6274 61.3334 72 66.706 72 73.3334V84.4659Z" fill="#9B3C00" fill-opacity="0.25"/>
<path d="M34.667 46.6667C34.667 31.9391 40.0003 17.3334 61.3337 17.3334C82.667 17.3334 88.0003 31.9391 88.0003 46.6667C88.0003 63.8928 78.667 80 61.3337 80C44.0003 80 34.667 63.8928 34.667 46.6667Z" fill="#FFD0B2"/>
<path d="M34.667 46.6667C34.667 31.9391 40.0003 17.3334 61.3337 17.3334C82.667 17.3334 88.0003 31.9391 88.0003 46.6667C88.0003 63.8928 78.667 80 61.3337 80C44.0003 80 34.667 63.8928 34.667 46.6667Z" fill="#9B3C00" fill-opacity="0.25"/>
<path d="M95.9997 48.6666C95.9997 52.6666 92.6663 57.3333 88.6663 57.3333C84.6663 57.3333 81.333 54.05 81.333 50C81.333 45.9499 84.6663 42.6666 88.6663 42.6666C92.6663 42.6666 95.9997 44.6667 95.9997 48.6666Z" fill="#FFD0B2"/>
<path fill-rule="evenodd" clip-rule="evenodd" d="M60.6673 17.3381C81.4451 17.6401 86.667 32.0937 86.667 46.6667C86.667 63.6706 77.5728 79.5844 60.6668 79.992C43.7611 79.5842 34.667 63.6705 34.667 46.6667C34.667 32.0936 39.889 17.6399 60.6673 17.3381Z" fill="#FFD0B2"/>
<path d="M60.2138 49.3334C59.5129 52.6072 56.0083 65.7027 62.667 62.0196" stroke="#333333" stroke-linecap="round"/>
<path d="M57.333 68C58.5182 69.9491 63.333 70 64.6663 66.6666" stroke="#333333" stroke-linecap="round"/>
<circle cx="50" cy="47.3334" r="2" fill="#333333"/>
<circle cx="72.667" cy="47.3334" r="2" fill="#333333"/>
<path d="M89.333 46.6666C90.6663 46.6666 91.9997 47.8095 91.9997 49.3333" stroke="#333333" stroke-linecap="round"/>
<path d="M26.6663 48.6666C26.6663 52.6666 29.9997 57.3333 33.9997 57.3333C37.9997 57.3333 41.333 54.05 41.333 50C41.333 45.9499 37.9997 42.6666 33.9997 42.6666C29.9997 42.6666 26.6663 44.6667 26.6663 48.6666Z" fill="#FFD0B2"/>
<path d="M33.333 46.6666C31.9997 46.6666 30.6663 47.8095 30.6663 49.3333" stroke="#333333" stroke-linecap="round"/>
<path d="M94.6663 42.2089C85.0024 51.7109 72.3889 33.8735 69.9997 27.3333C67.8553 29.4941 62.5513 33.7381 57.333 36.6666C45.5021 43.306 29.333 45.1719 29.333 41.2095C29.333 19.3709 37.3182 2.66663 61.2737 2.66663C85.2293 2.66663 94.6663 20.3703 94.6663 42.2089Z" fill="#333333"/>
<path d="M94.6667 42.209C78 48 70 33.3334 70 27.3334C69.3333 31.3334 56.6667 43.3334 32 42" stroke="#333333"/>
<path d="M65.3331 46.6667C65.3331 46.1498 65.3821 45.6444 65.4758 45.1548C64.2674 44.4219 62.8495 44 61.3331 44C59.8167 44 58.3988 44.4219 57.1904 45.1548C57.2841 45.6444 57.3331 46.1498 57.3331 46.6667" stroke="#333333"/>
<path d="M81.333 46.6666C81.333 51.0849 77.7513 54.6666 73.333 54.6666C68.9147 54.6666 65.333 51.0849 65.333 46.6666C65.333 42.2483 68.9147 38.6666 73.333 38.6666C77.7513 38.6666 81.333 42.2483 81.333 46.6666ZM81.333 46.6666L90.6663 41.3333" stroke="#333333"/>
<path d="M41.333 46.6666C41.333 51.0849 44.9147 54.6666 49.333 54.6666C53.7513 54.6666 57.333 51.0849 57.333 46.6666C57.333 42.2483 53.7513 38.6666 49.333 38.6666C44.9147 38.6666 41.333 42.2483 41.333 46.6666ZM41.333 46.6666L33.333 41.3333" stroke="#333333"/>
</g>
<defs>
<clipPath id="clip0_228_2732">
<rect width="120" height="120" rx="60" fill="white"/>
</clipPath>
</defs>
</svg>
