<svg width="80" height="80" viewBox="0 0 80 80" fill="none" xmlns="http://www.w3.org/2000/svg">
<rect width="80" height="80" rx="40" fill="#F2C288"/>
<path fill-rule="evenodd" clip-rule="evenodd" d="M33.1544 18L49.1312 20.5933L65 53.3872L17 61.4286L33.1544 18ZM35.0247 40.741C37.1693 40.741 38.9078 39.0013 38.9078 36.8553C38.9078 34.7093 37.1693 32.9696 35.0247 32.9696C32.8801 32.9696 31.1416 34.7093 31.1416 36.8553C31.1416 39.0013 32.8801 40.741 35.0247 40.741ZM46.9749 40.741C49.1195 40.741 50.858 39.0013 50.858 36.8553C50.858 34.7093 49.1195 32.9696 46.9749 32.9696C44.8303 32.9696 43.0918 34.7093 43.0918 36.8553C43.0918 39.0013 44.8303 40.741 46.9749 40.741Z" fill="#F27D5A"/>
</svg>
