<svg width="120" height="120" viewBox="0 0 120 120" fill="none" xmlns="http://www.w3.org/2000/svg">
<g clip-path="url(#clip0_228_2731)">
<circle cx="60" cy="60" r="60" fill="#E98263"/>
<path d="M-12 157.432C-12 117.613 20.2355 85.3334 60 85.3334C99.7645 85.3334 132 117.613 132 157.432V207.901C132 247.72 99.7645 280 60 280C20.2355 280 -12 247.72 -12 207.901V157.432Z" fill="#FFD0B2"/>
<path d="M-12 157.432C-12 121.707 13.9474 92.051 48 86.3302C48 96 47.3333 106.667 61.3333 106.667C75.3333 106.667 72 96 72 86.3302C106.053 92.051 132 121.707 132 157.432V207.901C132 247.72 99.7645 280 60 280C20.2355 280 -12 247.72 -12 207.901V157.432Z" fill="#4A89AC"/>
<path d="M70.667 140.667C73.3337 117.333 76.667 95.3333 72.0003 86.3302C106.053 92.051 132 121.707 132 157.432C109.235 134.667 90.0003 140.667 70.667 140.667Z" fill="white"/>
<path d="M70.667 140.667C73.3337 117.333 76.667 95.3333 72.0003 86.3302C106.053 92.051 132 121.707 132 157.432C109.235 134.667 90.0003 140.667 70.667 140.667Z" fill="#E0E0E0"/>
<path d="M70.667 140.667C73.3337 117.333 76.667 95.3333 72.0003 86.3302C106.053 92.051 132 121.707 132 157.432C109.235 134.667 90.0003 140.667 70.667 140.667Z" fill="white"/>
<path d="M49.333 140.667C46.6663 117.333 43.333 95.3333 47.9997 86.3302C13.9471 92.051 -12.0003 121.707 -12.0003 157.432C10.7651 134.667 29.9997 140.667 49.333 140.667Z" fill="white"/>
<path d="M79.3329 118C75.9995 110 77.9995 104 82.7117 100M82.7117 100C80.5233 89.6404 74.7674 82.6666 59.9995 82.6666C44.6066 82.6666 37.8044 90.5598 36.516 97.7894C35.6468 102.667 35.9995 107.333 35.9995 109.333M82.7117 100C82.7117 100 93.9995 101.333 95.9995 110.667" stroke="#333333"/>
<rect x="48" y="61.3334" width="24" height="37.3333" rx="12" fill="#FFD0B2"/>
<path fill-rule="evenodd" clip-rule="evenodd" d="M72 89.7992C69.93 90.3646 67.7067 90.6666 65.3333 90.6666C58.1499 90.6666 52.3405 87.9002 48 83.4342V78.6666C48 72.0392 53.3726 66.6666 60 66.6666C66.6274 66.6666 72 72.0392 72 78.6666V89.7992Z" fill="#9B3C00" fill-opacity="0.25"/>
<path d="M34.667 52C34.667 37.2724 40.0003 22.6666 61.3337 22.6666C82.667 22.6666 88.0003 37.2724 88.0003 52C88.0003 69.226 78.667 85.3333 61.3337 85.3333C44.0003 85.3333 34.667 69.226 34.667 52Z" fill="#FFD0B2"/>
<path d="M34.667 52C34.667 37.2724 40.0003 22.6666 61.3337 22.6666C82.667 22.6666 88.0003 37.2724 88.0003 52C88.0003 69.226 78.667 85.3333 61.3337 85.3333C44.0003 85.3333 34.667 69.226 34.667 52Z" fill="#9B3C00" fill-opacity="0.25"/>
<path d="M95.9997 54C95.9997 58 92.6663 62.6667 88.6663 62.6667C84.6663 62.6667 81.333 59.3834 81.333 55.3333C81.333 51.2832 84.6663 48 88.6663 48C92.6663 48 95.9997 50 95.9997 54Z" fill="#FFD0B2"/>
<path fill-rule="evenodd" clip-rule="evenodd" d="M60.6673 22.6715C81.4451 22.9735 86.667 37.4271 86.667 52C86.667 69.004 77.5728 84.9178 60.6668 85.3254C43.7611 84.9176 34.667 69.0039 34.667 52C34.667 37.427 39.889 22.9733 60.6673 22.6715Z" fill="#FFD0B2"/>
<path d="M60.2138 54.6666C59.5129 57.9405 56.0083 71.0359 62.667 67.3528" stroke="#333333" stroke-linecap="round"/>
<path d="M57.333 73.3333C58.5182 75.2825 63.333 75.3333 64.6663 72" stroke="#333333" stroke-linecap="round"/>
<circle cx="50" cy="52.6666" r="2" fill="#333333"/>
<circle cx="72.667" cy="52.6666" r="2" fill="#333333"/>
<path d="M89.333 52C90.6663 52 91.9997 53.1429 91.9997 54.6667" stroke="#333333" stroke-linecap="round"/>
<path d="M26.6663 54C26.6663 58 29.9997 62.6667 33.9997 62.6667C37.9997 62.6667 41.333 59.3834 41.333 55.3333C41.333 51.2832 37.9997 48 33.9997 48C29.9997 48 26.6663 50 26.6663 54Z" fill="#FFD0B2"/>
<path d="M33.333 52C31.9997 52 30.6663 53.1429 30.6663 54.6667" stroke="#333333" stroke-linecap="round"/>
<path d="M88.6662 47.3333C81.9995 47.3333 62.6662 32 61.2736 28.6667C60.6662 32.6667 38.6662 46 33.1593 47.3333C29.9995 43.3333 30.466 30.8178 33.1593 24.6667C37.6155 14.4894 46.3424 8 61.2736 8C75.8787 8 85.0872 14.5805 90.0507 24.6667C93.2284 31.124 91.9995 43.3333 88.6662 47.3333Z" fill="#333333"/>
<path d="M87.9993 47.3333C81.333 49.3333 69.6736 42.6666 61.333 28.6666C65.3334 38 70.6663 48.6666 87.9993 47.3333Z" stroke="#333333"/>
<circle cx="61.3333" cy="12" r="13.3333" fill="#333333"/>
<circle cx="36.0003" cy="112" r="5.33333" stroke="#333333"/>
<circle cx="35.9997" cy="112" r="2.66667" fill="white" stroke="#333333"/>
<circle cx="73.333" cy="52" r="8" stroke="#333333"/>
<circle cx="49.333" cy="52" r="8" stroke="#333333"/>
<path d="M65.3331 52C65.3331 51.4832 65.3821 50.9777 65.4758 50.4881C64.2674 49.7553 62.8495 49.3334 61.3331 49.3334C59.8167 49.3334 58.3988 49.7553 57.1904 50.4881C57.2841 50.9777 57.3331 51.4832 57.3331 52" stroke="#333333"/>
<path d="M81.333 52C81.333 56.4183 77.7513 60 73.333 60C68.9147 60 65.333 56.4183 65.333 52C65.333 47.5817 68.9147 44 73.333 44C77.7513 44 81.333 47.5817 81.333 52ZM81.333 52L90.6663 46.6667" stroke="#333333"/>
<path d="M41.333 52C41.333 56.4183 44.9147 60 49.333 60C53.7513 60 57.333 56.4183 57.333 52C57.333 47.5817 53.7513 44 49.333 44C44.9147 44 41.333 47.5817 41.333 52ZM41.333 52L33.333 46.6667" stroke="#333333"/>
</g>
<defs>
<clipPath id="clip0_228_2731">
<rect width="120" height="120" rx="60" fill="white"/>
</clipPath>
</defs>
</svg>
