<svg width="80" height="80" viewBox="0 0 80 80" fill="none" xmlns="http://www.w3.org/2000/svg">
<g clip-path="url(#clip0_228_2785)">
<circle cx="40" cy="40" r="40" fill="#E98263"/>
<path d="M-8 104.955C-8 78.4087 13.4903 56.8889 40 56.8889C66.5097 56.8889 88 78.4087 88 104.955V138.601C88 165.147 66.5097 186.667 40 186.667C13.4903 186.667 -8 165.147 -8 138.601V104.955Z" fill="#FFD0B2"/>
<path d="M-8 104.955C-8 81.1381 9.29829 61.3673 32 57.5535C32 64 31.5556 67.5556 40.8889 67.5556C50.2222 67.5556 48 64 48 57.5535C70.7017 61.3673 88 81.1381 88 104.955V138.601C88 165.147 66.5097 186.667 40 186.667C13.4903 186.667 -8 165.147 -8 138.601V104.955Z" fill="white"/>
<rect x="32" y="40.8889" width="16" height="24.8889" rx="8" fill="#FFD0B2"/>
<path fill-rule="evenodd" clip-rule="evenodd" d="M48 56.3106C46.62 56.6876 45.1378 56.8889 43.5556 56.8889C38.7666 56.8889 34.8937 55.0446 32 52.0673V48.8889C32 44.4706 35.5817 40.8889 40 40.8889C44.4183 40.8889 48 44.4706 48 48.8889V56.3106Z" fill="#9B3C00" fill-opacity="0.25"/>
<path opacity="0.1" d="M50.6667 75.5556L40 69.3333L48 58.5359V56L49.3333 56.8889C49.6296 57.037 50.6667 57.6 52.4444 58.6667C54.2222 59.7333 54.0741 61.4815 53.7778 62.2222L50.6667 75.5556Z" fill="#333333"/>
<path opacity="0.1" d="M29.3362 75.5556L40 69.3333L32.0029 58.5359V56L30.6696 56.8889C30.3733 57.037 29.3362 57.6 27.5585 58.6667C25.7807 59.7333 25.9288 61.4815 26.2251 62.2222L29.3362 75.5556Z" fill="#333333"/>
<path d="M45.3337 66.6666H34.667L38.2225 71.1111H41.7781L45.3337 66.6666Z" fill="#333333"/>
<path d="M43.5557 86.2222H35.5557L38.2223 71.1111H41.7779L43.5557 86.2222Z" fill="#333333"/>
<path d="M49.7778 72.8889L40 66.6667L48 58.5359V56L49.3333 56.8889C49.6296 57.037 50.6667 57.6 52.4444 58.6667C54.2222 59.7333 54.0741 61.4815 53.7778 62.2222L49.7778 72.8889Z" fill="white"/>
<path d="M30.2251 72.8889L40 66.6667L32.0029 58.5359V56L30.6696 56.8889C30.3733 57.037 29.3362 57.6 27.5585 58.6667C25.7807 59.7333 25.9288 61.4815 26.2251 62.2222L30.2251 72.8889Z" fill="white"/>
<path d="M23.766 34.5727C23.3004 32.2781 23.0467 29.9272 23.2772 27.5973C24.1181 19.0964 28.3733 11.5555 40.8891 11.5555C53.405 11.5555 57.6602 19.0964 58.5011 27.5973C58.7315 29.9272 58.4778 32.2781 58.0122 34.5727C55.386 47.5154 51.5284 55.1111 40.8891 55.1111C30.2499 55.1111 26.3922 47.5154 23.766 34.5727Z" fill="#FFD0B2"/>
<path d="M23.766 34.5727C23.3004 32.2781 23.0467 29.9272 23.2772 27.5973C24.1181 19.0964 28.3733 11.5555 40.8891 11.5555C53.405 11.5555 57.6602 19.0964 58.5011 27.5973C58.7315 29.9272 58.4778 32.2781 58.0122 34.5727C55.386 47.5154 51.5284 55.1111 40.8891 55.1111C30.2499 55.1111 26.3922 47.5154 23.766 34.5727Z" fill="#9B3C00" fill-opacity="0.25"/>
<path d="M64.0004 32.4445C64.0004 35.1111 61.7782 38.2222 59.1115 38.2222C56.4449 38.2222 54.2227 36.0334 54.2227 33.3333C54.2227 30.6333 56.4449 28.4445 59.1115 28.4445C61.7782 28.4444 64.0004 29.7778 64.0004 32.4445Z" fill="#FFD0B2"/>
<path fill-rule="evenodd" clip-rule="evenodd" d="M40.4443 11.5588C52.6168 11.7357 56.7809 19.1979 57.6118 27.5974C57.8423 29.9273 57.5886 32.2782 57.123 34.5728C54.5337 47.3336 50.7473 54.8967 40.4443 55.1067C30.1413 54.8967 26.3549 47.3336 23.7657 34.5728C23.3001 32.2782 23.0463 29.9273 23.2768 27.5974C24.1077 19.1979 28.2719 11.7357 40.4443 11.5588Z" fill="#FFD0B2"/>
<path d="M40.1419 32.8889C39.6746 35.0715 37.3382 43.8018 41.7773 41.3464" stroke="#333333" stroke-linecap="round"/>
<path d="M43.1113 45.3333C42.3212 46.6328 39.1113 46.6667 38.2224 44.4445" stroke="#333333" stroke-linecap="round"/>
<circle cx="33.3333" cy="31.5555" r="1.33333" fill="#333333"/>
<circle cx="48.4447" cy="31.5555" r="1.33333" fill="#333333"/>
<path d="M59.5557 31.1111C60.4446 31.1111 61.3334 31.873 61.3334 32.8889" stroke="#333333" stroke-linecap="round"/>
<path d="M17.7779 32.4445C17.7779 35.1111 20.0001 38.2222 22.6668 38.2222C25.3334 38.2222 27.5557 36.0334 27.5557 33.3333C27.5557 30.6333 25.3334 28.4445 22.6668 28.4445C20.0001 28.4444 17.7779 29.7778 17.7779 32.4445Z" fill="#FFD0B2"/>
<path d="M22.2227 31.1111C21.3338 31.1111 20.4449 31.873 20.4449 32.8889" stroke="#333333" stroke-linecap="round"/>
<path d="M60.4445 28.1394C60.4444 28.0285 60 28.8889 58.6667 29.948C58.2216 29.9197 57.7764 35.7083 57.3334 35.5819C56 35.5556 56 30.2223 56 29.1968C56 24.8889 56 11.5556 45.3334 18.2223C44.4445 17.7778 32.8122 14.9366 29.3334 16.8889C25.3347 19.1329 25.7778 24.8889 25.7778 28.6311C25.7778 29.8904 25.7778 34.6667 24.2493 34.6667C23.8508 34.6966 23.4704 28.8442 23.1111 28.8481C20.9536 28.8718 21.3334 27.5355 21.3334 26.5842C21.3334 12.0251 24.879 1.77783 40.8494 1.77783C56.8198 1.77783 60.4445 13.5803 60.4445 28.1394Z" fill="#333333"/>
<path d="M53.7781 30.6667C53.7781 35.1111 51.5559 35.5555 48.0003 35.5555C43.5559 35.5555 42.667 34.5011 42.667 31.5555C42.667 28.61 43.1114 27.5555 47.1114 27.5555C51.5559 27.5555 53.7781 27.7211 53.7781 30.6667Z" stroke="#333333"/>
<path d="M53.778 30.2222L58.6669 28.4445M27.5558 30.2222L23.1113 28.4445" stroke="#333333" stroke-linecap="round"/>
<path d="M42.667 30.2223C42.667 29.7778 41.8653 29.3334 40.8892 29.3334C39.9131 29.3334 38.667 29.7778 38.667 30.2223" stroke="#333333"/>
<path d="M27.5559 30.6667C27.5559 35.1111 29.7781 35.5555 33.3337 35.5555C37.7781 35.5555 38.667 34.5011 38.667 31.5555C38.667 28.61 38.2225 27.5555 34.2225 27.5555C29.7781 27.5555 27.5559 27.7211 27.5559 30.6667Z" stroke="#333333"/>
</g>
<defs>
<clipPath id="clip0_228_2785">
<rect width="80" height="80" rx="40" fill="white"/>
</clipPath>
</defs>
</svg>
