<svg width="80" height="80" viewBox="0 0 80 80" fill="none" xmlns="http://www.w3.org/2000/svg">
<g clip-path="url(#clip0_228_2730)">
<circle cx="40" cy="40" r="40" fill="#9DC0CA"/>
<path d="M-8 104.955C-8 78.4087 13.4903 56.8889 40 56.8889C66.5097 56.8889 88 78.4087 88 104.955V138.601C88 165.147 66.5097 186.667 40 186.667C13.4903 186.667 -8 165.147 -8 138.601V104.955Z" fill="#FFD0B2"/>
<path d="M-8 104.955C-8 81.1381 9.29829 61.3673 32 57.5535C32 64 31.5556 71.1111 40.8889 71.1111C50.2222 71.1111 48 64 48 57.5535C70.7017 61.3673 88 81.1381 88 104.955V138.601C88 165.147 66.5097 186.667 40 186.667C13.4903 186.667 -8 165.147 -8 138.601V104.955Z" fill="#E98263"/>
<path d="M24.8887 58.6666C24.8887 61.8953 25.1469 67.5682 25.2697 71.4615C25.3219 73.1175 26.6763 74.4586 28.3332 74.4586H51.6665C53.3234 74.4586 54.6777 73.1175 54.73 71.4615C54.8528 67.5682 55.111 61.8953 55.111 58.6666C57.2561 59.3785 59.3342 60.2379 61.3332 61.2326V91.7919H18.6665V61.2326C20.6655 60.2379 22.7436 59.3785 24.8887 58.6666Z" fill="white"/>
<circle cx="26.6667" cy="75.5556" r="2.66667" fill="white"/>
<circle cx="32.0002" cy="75.5556" r="2.66667" fill="white"/>
<circle cx="37.3332" cy="75.5556" r="2.66667" fill="white"/>
<circle cx="42.6667" cy="75.5556" r="2.66667" fill="white"/>
<circle cx="48.0002" cy="75.5556" r="2.66667" fill="white"/>
<circle cx="53.3332" cy="75.5556" r="2.66667" fill="white"/>
<path d="M51.1112 42.6666C48.4446 42.6666 19.5557 20.8889 19.5557 27.5555C19.5557 32.4974 48.0001 57.7777 48.0001 57.7777C48.0001 57.7777 52.889 64.4444 52.0001 70.2222C52.889 69.7777 54.5526 68 53.7779 65.3333C55.1112 68.8888 55.5557 74.6666 55.5557 74.6666C55.5557 74.6666 83.5557 64.8888 51.1112 42.6666Z" fill="#333333"/>
<rect x="32" y="40.8889" width="16" height="24.8889" rx="8" fill="#FFD0B2"/>
<path fill-rule="evenodd" clip-rule="evenodd" d="M48 56.3106C46.62 56.6876 45.1378 56.8889 43.5556 56.8889C38.7666 56.8889 34.8937 55.0446 32 52.0673V48.8889C32 44.4706 35.5817 40.8889 40 40.8889C44.4183 40.8889 48 44.4706 48 48.8889V56.3106Z" fill="#9B3C00" fill-opacity="0.25"/>
<path d="M23.1113 31.1111C23.1113 21.2927 26.6669 11.5555 40.8891 11.5555C55.1113 11.5555 58.6669 21.2927 58.6669 31.1111C58.6669 42.5951 52.4447 53.3333 40.8891 53.3333C29.3336 53.3333 23.1113 42.5951 23.1113 31.1111Z" fill="#FFD0B2"/>
<path d="M23.1113 31.1111C23.1113 21.2927 26.6669 11.5555 40.8891 11.5555C55.1113 11.5555 58.6669 21.2927 58.6669 31.1111C58.6669 42.5951 52.4447 53.3333 40.8891 53.3333C29.3336 53.3333 23.1113 42.5951 23.1113 31.1111Z" fill="#9B3C00" fill-opacity="0.25"/>
<path d="M63.9999 32.4445C63.9999 35.1111 61.7777 38.2222 59.1111 38.2222C56.4444 38.2222 54.2222 36.0334 54.2222 33.3333C54.2222 30.6333 56.4444 28.4445 59.1111 28.4445C61.7777 28.4444 63.9999 29.7778 63.9999 32.4445Z" fill="#FFD0B2"/>
<path fill-rule="evenodd" clip-rule="evenodd" d="M40.4448 11.5588C54.2967 11.7602 57.778 21.3959 57.778 31.1112C57.778 42.4471 51.7152 53.0563 40.4446 53.3281C29.1741 53.0562 23.1113 42.4471 23.1113 31.1112C23.1113 21.3958 26.5926 11.76 40.4448 11.5588Z" fill="#FFD0B2"/>
<path d="M40.1424 32.8889C39.6751 35.0715 37.3387 43.8018 41.7778 41.3464" stroke="#333333" stroke-linecap="round"/>
<path d="M38.2222 45.3333C39.0123 46.6328 42.2222 46.6667 43.1111 44.4445" stroke="#333333" stroke-linecap="round"/>
<circle cx="33.3333" cy="31.5555" r="1.33333" fill="#333333"/>
<circle cx="48.4447" cy="31.5555" r="1.33333" fill="#333333"/>
<path d="M59.5557 31.1111C60.4446 31.1111 61.3334 31.873 61.3334 32.8889" stroke="#333333" stroke-linecap="round"/>
<path d="M17.7779 32.4445C17.7779 35.1111 20.0001 38.2222 22.6668 38.2222C25.3334 38.2222 27.5557 36.0334 27.5557 33.3333C27.5557 30.6333 25.3334 28.4445 22.6668 28.4445C20.0001 28.4444 17.7779 29.7778 17.7779 32.4445Z" fill="#FFD0B2"/>
<path d="M22.2222 31.1111C21.3333 31.1111 20.4444 31.873 20.4444 32.8889" stroke="#333333" stroke-linecap="round"/>
<path d="M63.1112 28.1394C56.6686 34.474 48.2596 22.5824 46.6668 18.2223C45.2372 19.6628 41.7012 22.4922 38.2223 24.4445C30.3351 28.8708 19.5557 30.1147 19.5557 27.4731C19.5557 12.914 24.8791 1.77783 40.8495 1.77783C56.8199 1.77783 63.1112 13.5803 63.1112 28.1394Z" fill="#333333"/>
<path d="M55.9999 20.4445C54.2221 18.4795 55.111 20.4445 55.111 20.4445C58.3296 37.82 56.9287 51.4082 52.4443 68.4445C52.4443 68.4445 61.7777 43.3684 55.9999 20.4445Z" fill="#333333"/>
<path d="M54.2221 11.5399C52.4443 9.575 53.3332 11.5399 53.3332 11.5399C56.5518 28.9154 55.1508 42.5036 50.6665 59.5399C50.6665 59.5399 59.9998 34.4639 54.2221 11.5399Z" fill="#333333"/>
</g>
<defs>
<clipPath id="clip0_228_2730">
<rect width="80" height="80" rx="40" fill="white"/>
</clipPath>
</defs>
</svg>
