<svg width="80" height="80" viewBox="0 0 80 80" fill="none" xmlns="http://www.w3.org/2000/svg">
<g clip-path="url(#clip0_449_11555)">
<rect width="80" height="80" rx="40" fill="#9DC0CA"/>
<circle cx="40" cy="40" r="40" fill="#9DC0CA"/>
<path d="M-8 104.955C-8 78.4087 13.4903 56.8889 40 56.8889C66.5097 56.8889 88 78.4087 88 104.955V138.601C88 165.147 66.5097 186.667 40 186.667C13.4903 186.667 -8 165.147 -8 138.601V104.955Z" fill="#FFD0B2"/>
<path d="M24.8889 61.3334C24.8889 61.8707 24.9532 62.4148 25.0656 62.9615C26.3012 68.9723 33.8635 73.3334 40 73.3334C46.1365 73.3334 53.6988 68.9723 54.9344 62.9615C55.0468 62.4148 55.1111 61.8707 55.1111 61.3334C57.2563 62.0453 59.3343 62.9046 61.3333 63.8994C61.3333 74.0142 64 86.6667 64 86.6667H16C16 86.6667 18.6667 74.0142 18.6667 63.8994C20.6657 62.9046 22.7437 62.0453 24.8889 61.3334Z" fill="#E98263"/>
<path d="M-8 104.955C-8 81.1381 9.29829 61.3673 32 57.5535C26.6667 71.1111 40 77.3333 40 77.3333C40 77.3333 53.7778 69.3333 48 57.5535C70.7017 61.3673 88 81.1381 88 104.955V138.601C88 165.147 66.5097 186.667 40 186.667C13.4903 186.667 -8 165.147 -8 138.601V104.955Z" fill="#F2C288"/>
<rect x="32" y="40.8889" width="16" height="24.8889" rx="8" fill="#FFD0B2"/>
<path fill-rule="evenodd" clip-rule="evenodd" d="M48 58.9772C46.62 59.3542 45.1378 59.5555 43.5556 59.5555C38.7666 59.5555 34.8937 57.7113 32 54.7339V51.5555C32 47.1373 35.5817 43.5555 40 43.5555C44.4183 43.5555 48 47.1373 48 51.5555V58.9772Z" fill="#9B3C00" fill-opacity="0.25"/>
<path d="M23.766 37.2395C23.3004 34.9449 23.0467 32.594 23.2772 30.264C24.1181 21.7631 28.3733 14.2223 40.8891 14.2223C53.405 14.2223 57.6602 21.7631 58.5011 30.264C58.7315 32.594 58.4778 34.9449 58.0122 37.2395C55.386 50.1821 51.5284 57.7778 40.8891 57.7778C30.2499 57.7778 26.3922 50.1821 23.766 37.2395Z" fill="#FFD0B2"/>
<path d="M23.766 37.2395C23.3004 34.9449 23.0467 32.594 23.2772 30.264C24.1181 21.7631 28.3733 14.2223 40.8891 14.2223C53.405 14.2223 57.6602 21.7631 58.5011 30.264C58.7315 32.594 58.4778 34.9449 58.0122 37.2395C55.386 50.1821 51.5284 57.7778 40.8891 57.7778C30.2499 57.7778 26.3922 50.1821 23.766 37.2395Z" fill="#9B3C00" fill-opacity="0.25"/>
<path d="M64.0004 35.1111C64.0004 37.7777 61.7782 40.8889 59.1115 40.8889C56.4449 40.8889 54.2227 38.7 54.2227 36C54.2227 33.2999 56.4449 31.1111 59.1115 31.1111C61.7782 31.1111 64.0004 32.4444 64.0004 35.1111Z" fill="#FFD0B2"/>
<path fill-rule="evenodd" clip-rule="evenodd" d="M40.4443 14.2255C52.6168 14.4023 56.7809 21.8645 57.6118 30.264C57.8423 32.5939 57.5886 34.9449 57.123 37.2394C54.5337 50.0003 50.7473 57.5633 40.4443 57.7733C30.1413 57.5633 26.3549 50.0003 23.7657 37.2394C23.3001 34.9449 23.0463 32.5939 23.2768 30.264C24.1077 21.8645 28.2719 14.4023 40.4443 14.2255Z" fill="#FFD0B2"/>
<path d="M40.1419 35.5555C39.6746 37.7381 37.3382 46.4684 41.7773 44.013" stroke="#333333" stroke-linecap="round"/>
<path d="M43.1113 48C42.3212 49.2994 39.1113 49.3333 38.2224 47.1111" stroke="#333333" stroke-linecap="round"/>
<circle cx="33.3333" cy="34.2222" r="1.33333" fill="#333333"/>
<circle cx="48.4447" cy="34.2222" r="1.33333" fill="#333333"/>
<path d="M59.5557 33.7778C60.4446 33.7778 61.3334 34.5397 61.3334 35.5556" stroke="#333333" stroke-linecap="round"/>
<path d="M17.7779 35.1111C17.7779 37.7777 20.0001 40.8889 22.6668 40.8889C25.3334 40.8889 27.5557 38.7 27.5557 36C27.5557 33.2999 25.3334 31.1111 22.6668 31.1111C20.0001 31.1111 17.7779 32.4444 17.7779 35.1111Z" fill="#FFD0B2"/>
<path d="M22.2227 33.7778C21.3338 33.7778 20.4449 34.5397 20.4449 35.5556" stroke="#333333" stroke-linecap="round"/>
<path d="M57.5055 10.2682C61.5221 18.9079 57.5092 37.4589 57.5092 37.4589C57.5092 37.4589 56.8889 33.7777 55.4246 30.5064C53.9602 27.235 55.1111 26.2222 55.1111 26.2222L51.5556 29.0723C51.5556 29.0723 52.8421 26.5107 52.8889 25.3333C39.9463 38.547 36.9759 32.6298 28.4963 35.6791C28.4963 35.6791 30.2222 34.2222 30.2815 33.138C23.587 32.6298 24.4759 40 24.4759 40C24.4759 40 22.2481 35.6791 22.2481 33.6462C20.0167 35.1709 16 36.1873 16 36.1873C16 36.1873 20.3608 33.138 20.7227 31.6134C19.1241 32.6298 16.8926 32.6298 16.8926 32.6298C16.8926 32.6298 20.0167 30.5969 20.3608 29.0723C20.3608 19.4161 19.4571 6.22823 32.9592 3.15313C37.5293 2.1123 45.4555 2.64492 49.0259 5.69423C52.1499 4.6778 55.9506 6.92361 57.5055 10.2682Z" fill="#333333"/>
</g>
<defs>
<clipPath id="clip0_449_11555">
<rect width="80" height="80" rx="40" fill="white"/>
</clipPath>
</defs>
</svg>
